<svg version="1.2" xmlns="http://www.w3.org/2000/svg" viewBox="0 0 1024 1024" width="10240" height="10240">
	<title>memgui</title>
	<style>
		.s0 { fill: #51a2ff }
		.s1 { opacity: .9;fill: #51a2ff }
		.s2 { opacity: 1;fill: #51a2ff }
		.s3 { opacity: .8;fill: #51a2ff }
	</style>
	<g id="Camada 1">
		<path id="Path 0" fill-rule="evenodd" class="s0" d="m514.5 19c7.7 0 12.5 0.4 12.5 1 0 0.6 1.1 1 2.5 1 1.6 0 4 1.5 6.5 4 2.2 2.2 4.5 4 5 4 0.5 0 1.7 0.7 2.5 1.5 0.8 0.8 1.5 2 1.5 2.5 0 0.5 1.6 2.6 3.5 4.5 1.9 1.9 3.5 4.2 3.5 5 0 0.8 0.5 1.5 1 1.5 0.5 0 1 0.9 1 2 0 1.1 0.5 2 1 2 0.6 0 1 5.5 1 14.5 0 9-0.4 14.5-1 14.5-0.5 0-1 0.9-1 2 0 1.1-0.5 2-1 2-0.5 0-1 0.8-1 1.8-0.1 0.9-1.1 3.4-2.3 5.5-1.2 2-2.5 3.7-3 3.7-0.4 0-2.1 1.3-3.7 3-1.6 1.7-3.7 3-4.5 3-0.8 0-1.5 0.3-1.5 0.7 0 0.5-1.2 1.4-2.8 2.1-1.5 0.7-3.3 1.2-4 1.2-0.9 0-1.2 22.2-1.2 107.5 0 101.7 0.1 107.5 1.7 107.5 1 0.1 2.5 0.9 3.3 1.8 0.8 0.9 2.7 2.4 4.3 3.2 1.5 0.8 2.7 1.8 2.7 2.2 0 0.5 1.1 1.9 2.5 3.3 1.4 1.4 2.7 2.5 3 2.5 0.3 0 1.2 0.7 2 1.5 0.8 0.8 1.5 2.1 1.5 2.7 0 0.7 0.9 2 2 2.8 1.2 0.9 2 2.6 2 4.3 0 1.5 0.5 2.9 1 3.2 0.6 0.3 1 6.5 1 15.5 0 9-0.4 15.2-1 15.5-0.5 0.3-1 1.4-1 2.5 0 1.1-0.5 2-1 2-0.5 0-1 0.8-1 1.7 0 1-1.2 2.7-2.7 3.8-1.4 1.1-3.2 2.6-3.9 3.3-0.7 0.6-1.9 1.2-2.6 1.2-0.7 0-2 0.9-2.8 2-0.8 1.1-2.3 2-3.3 2-0.9 0-1.7 0.4-1.7 1 0 0.6-1.4 1-3 1-1.8 0-3.2 0.6-3.5 1.5-0.3 0.9-1.7 1.5-3.5 1.5-1.6 0-3.2 0.4-3.5 1-0.3 0.6-3.5 1-7.3 1-3.7 0-8.3-0.6-10.5-1.5-2-0.8-3.7-1.9-3.7-2.5 0-0.6-1.1-1-2.5-1-1.4 0-2.5-0.4-2.5-1 0-0.6-0.7-1-1.5-1-0.8 0-2.9-1.4-4.5-3-1.6-1.6-3.4-3-4-3-0.6 0-1.3-0.8-1.7-1.8-0.4-0.9-2.4-3.4-4.5-5.5-2.1-2-3.8-4.6-3.8-5.7 0-1.1-0.7-2.2-1.5-2.5-1.3-0.4-1.5-2.8-1.3-14.2 0.2-9.9 0.6-13.7 1.5-14 0.7-0.2 1.3-1.3 1.3-2.6-0.1-1.3 1.9-4.4 5-7.7 2.8-3 5.1-5.8 5-6.3 0-0.4 1-1.8 2.2-3 1.3-1.3 3.5-3.7 4.9-5.3 1.4-1.6 2.9-4.4 3.2-6.2 0.4-1.7 1.1-3.4 1.7-3.7 0.6-0.3 1-12.2 1-32.5 0-20.7 0.4-32 1-32 0.7 0 1-24.5 1-143h-3c-1.6 0-3.2-0.5-3.5-1-0.3-0.5-1.4-1-2.5-1-1.1 0-2-0.5-2-1 0-0.5-0.6-1-1.3-1-0.6 0-2.4-1-3.9-2.3-1.5-1.2-2.7-2.8-2.8-3.5 0-0.6-0.9-2.2-2-3.5-1.1-1.2-2-3-2-4 0-0.9-0.4-1.7-1-1.7-0.6 0-1-1.3-1-3 0-1.7-0.4-3-1-3-0.6 0-1.2-1-1.5-2.3-0.3-1.2-1.1-3.9-1.8-6-1.1-3.4-1-4 0.5-4.8 1-0.5 1.8-2 1.8-3.4 0-1.4 0.4-2.7 1-3 0.6-0.3 0.9-3.7 0.9-7.6-0.2-5.9 0.1-7.4 1.7-8.8 1.1-0.9 2.6-2.9 3.4-4.5 0.8-1.6 3-4.4 4.9-6.3 1.8-1.8 3.8-3.3 4.5-3.3 0.6 0 1.7-0.9 2.4-2 0.7-1.1 2.4-2 3.7-2 1.4 0 2.5-0.5 2.5-1 0-0.6 0.9-1 2-1 1.1 0 2-0.5 2-1 0-0.6 4.8-1 12.5-1zm-14.9 27.4c-2.8 2.4-4.9 5.1-4.8 6 0.1 0.9-0.2 1.8-0.8 2.1-0.6 0.3-1 3.2-1 6.5 0 3.3 0.4 6 1 6 0.6 0 1 1.1 1 2.5 0 1.6 1.3 3.7 3.7 6 2.1 1.9 5.7 4.4 8 5.5 2.4 1.1 6.2 2 8.5 2 2.4 0 6.1-0.8 8.3-1.9 2.2-1 5.7-3.5 7.7-5.5 2.4-2.3 3.8-4.5 3.8-6.1 0-1.4 0.5-2.5 1-2.5 0.5 0 1-2.1 1-4.8 0-2.6-0.6-6.3-1.3-8.2-0.6-1.9-3.6-5.9-6.5-8.7l-5.2-5.3c-13.6 0.1-17.9 0.5-18.5 1.1-0.6 0.5-3.2 2.9-5.9 5.3zm6.4 290.6c0 0.5-0.7 1-1.6 1-0.8 0-2.1 0.6-2.8 1.2-0.7 0.7-2.5 2.2-3.9 3.3-1.5 1.1-2.7 2.6-2.7 3.2 0 0.7-0.9 2.3-2 3.5-1.5 1.7-2 3.7-2 7.8 0 4.4 0.4 5.8 2 7 1.1 0.8 2 2.2 2.1 3 0 0.8 1.7 3.2 3.7 5.2 2 2 4.4 3.7 5.2 3.7 0.8 0.1 2.2 1 3 2.1 1.2 1.6 2.6 2 7 2 4.1 0 6.1-0.5 7.7-2 1.3-1.1 2.9-2 3.5-2 0.7-0.1 2.5-1.5 4.1-3.3 1.5-1.8 3.4-4.7 4.2-6.5 0.8-1.7 2-3.2 2.5-3.2 0.5 0 1-2.6 1-5.8 0-4.3-0.4-6.2-2-8-1.1-1.2-2-2.7-2-3.2 0-0.6-1.6-2.6-3.5-4.5-1.9-1.9-4.1-3.5-4.9-3.5-0.7 0-1.5-0.4-1.7-0.9-0.2-0.5-2.7-1.1-5.4-1.4-2.8-0.2-6.5-0.3-8.3-0.1-1.7 0.2-3.2 0.8-3.2 1.4zm468.3 277.1c4-0.1 5.1 0.4 11 6.4l-0.7 58c-0.4 36.5-1 58.1-1.6 58.2-0.6 0.2-1 3.9-1 8.3 0 4.7-0.4 8-1 8-0.5 0-1 1.6-1 3.5 0 1.9-0.5 3.5-1 3.5-0.5 0-1 1.1-1 2.5 0 1.4-0.7 2.7-1.5 3-0.9 0.3-1.5 1.7-1.5 3.5 0 1.6-0.5 3-1 3-0.5 0-1 0.9-1 2 0 1.1-0.5 2-1 2-0.5 0-1 0.9-1 2 0 1.1-0.5 2-1 2-0.5 0-1 1-1 2.2 0 1.3-0.9 3-2 3.8-1.1 0.8-2 2.2-2 3 0 0.8-0.9 2.2-2 3-1.1 0.8-2 2.1-2 2.7 0 0.7-1.6 2.9-3.5 4.8-1.9 1.9-3.9 3.5-4.5 3.5-0.5 0-1 0.9-1 2 0 1.3-5.7 7.6-15.2 17-8.4 8.2-15.6 15-16 15-0.5 0-2.2 1.3-3.8 3-1.6 1.6-3.5 3-4 3-0.5 0-2.4 1.3-4 3-1.6 1.6-3.5 3-4 3-0.5 0-1 0.4-1 1 0 0.5-0.7 1-1.6 1-0.8 0-2.2 0.7-3 1.5-0.8 0.8-1.4 1.9-1.4 2.5 0 0.5-0.9 1-2 1-1.1 0-2 0.4-2 1 0 0.5-0.8 1-1.8 1-0.9 0-2.4 0.9-3.2 2-0.8 1.1-2.1 2-2.8 2-0.6 0-2.2 0.9-3.5 2-1.2 1.1-3 2-4 2-0.9 0-1.7 0.4-1.7 1 0 0.5-0.9 1-2 1-1.1 0-2 0.4-2 1 0 0.5-0.9 1-2 1-1.1 0-2 0.4-2 1 0 0.5-0.8 1-1.8 1-0.9 0-2.4 0.9-3.2 2-0.8 1.1-2.3 2-3.3 2-0.9 0-1.9 0.7-2.2 1.5-0.3 0.8-1.4 1.5-2.5 1.5-1.1 0-2 0.4-2 1 0 0.5-1.4 1-3 1-1.6 0-3 0.4-3 1 0 0.5-0.9 1-2 1-1.1 0-2 0.4-2 1 0 0.5-0.9 1-2 1-1.1 0-2 0.4-2 1 0 0.5-1.4 1-3 1-1.6 0-3.2 0.4-3.5 1-0.3 0.5-1.4 1-2.5 1-1.1 0-2 0.4-2 1 0 0.5-1.4 1-3 1-1.6 0-3 0.4-3 1 0 0.5-0.9 1-2 1-1.1 0-2 0.4-2 1 0 0.5-1.4 1-3 1-1.6 0-3 0.4-3 1 0 0.5-1.6 1-3.5 1-1.9 0-3.5 0.4-3.5 1 0 0.6-3.5 1-8.5 1-6.2 0-8.9-0.4-10-1.5-1-1-1.5-3.4-1.5-7 0-4.2-0.3-5.5-1.5-5.5-1.3 0-1.5-2.8-1.5-19 0-12 0.4-19 1-19 0.5 0 2.4-1.4 4-3 1.6-1.7 3.7-3 4.5-3 0.8 0 1.5-0.5 1.5-1 0-0.6 0.9-1 2-1 1.1 0 2-0.5 2-1 0-0.6 0.9-1 2-1 1.1 0 2-0.5 2-1 0-0.6 1.4-1 3-1 1.6 0 3-0.5 3-1 0-0.6 1.1-1 2.5-1 1.4 0 2.5-0.5 2.5-1 0-0.6 0.9-1 2-1 1.1 0 2-0.7 2-1.5q0-1.5 3-1.5c1.6 0 3-0.5 3-1 0-0.6 0.9-1 2-1 1.1 0 2-0.5 2-1 0-0.6 0.9-1 2-1 1.1 0 2-0.5 2-1 0-0.6 1.1-1 2.5-1 1.4 0 2.5-0.5 2.5-1 0-0.6 0.9-1 2-1 1.1 0 2-0.5 2-1 0-0.6 0.9-1 2-1 1.1 0 2-0.5 2-1 0-0.6 0.9-1 2-1 1.1 0 2-0.5 2-1 0-0.6 0.9-1 2-1 1.1 0 2-0.5 2-1 0-0.6 1.5-1 3.2-1 2.2 0 3.8-0.7 4.8-2 0.8-1.1 2.3-2 3.2-2 1 0 1.8-0.5 1.8-1 0-0.6 0.9-1 2-1 1.1 0 2-0.5 2-1 0-0.6 0.6-1.7 1.4-2.5 0.8-0.8 2.2-1.5 3-1.5 0.9 0 1.6-0.5 1.6-1 0-0.6 0.9-1 2-1 1.1 0 2-0.5 2-1 0-0.6 0.5-1 1-1 0.5 0 2.8-1.8 5-4 2.2-2.2 4.5-4 5-4 0.6 0 2.6-1.6 4.5-3.5 1.9-1.9 3.5-3.7 3.5-4 0-0.3 1.1-1.6 2.5-3 1.3-1.4 3.1-2.5 4-2.5 0.8 0 4.5-2.9 8-6.5 3.6-3.6 6.5-7.1 6.5-7.8 0-0.6 0.9-1.9 2-2.7 1.1-0.8 2-1.8 2-2.3 0-0.4 1.1-1.8 2.5-3.2 1.3-1.4 2.7-2.5 3-2.5 0.4 0 1.3-0.7 2.1-1.5 0.8-0.8 1.4-2 1.4-2.5 0-0.6 1.8-2.8 8-9v-13c0-8 0.4-13 1-13 0.5 0 1-1.6 1-3.5 0-2.7-0.4-3.5-1.8-3.5-0.9 0-2.4 0.9-3.2 2-0.8 1.1-2.3 2-3.3 2-0.9 0-1.7 0.6-1.7 1.2 0 0.7-1.1 2-2.5 2.8-1.4 0.8-2.5 1.8-2.5 2.2 0 0.5-0.7 0.8-1.5 0.8-0.8 0-2.9 1.3-4.5 3-1.6 1.6-3.6 3-4.3 3-0.6 0-1.9 0.9-2.7 2-0.8 1.1-2.3 2-3.3 2-0.9 0-1.7 0.4-1.7 1 0 0.5-1.1 1-2.5 1-1.4 0-2.5 0.4-2.5 1 0 0.5-0.9 1-2 1-1.1 0-2 0.4-2 1 0 0.5-0.9 1-2 1-1.1 0-2 0.7-2 1.5 0 0.8-0.9 1.5-2 1.5-1.1 0-2 0.4-2 1 0 0.5-0.9 1-2 1-1.1 0-2 0.4-2 1 0 0.5-0.9 1-2 1-1.1 0-2 0.4-2 1 0 0.5-1.1 1-2.5 1-1.4 0-2.5 0.4-2.5 1 0 0.5-0.9 1-2 1-1.1 0-2 0.4-2 1 0 0.5-0.9 1-2 1-1.1 0-2 0.4-2 1 0 0.5-1.4 1-3 1-1.6 0-3 0.4-3 1 0 0.5-0.9 1-2 1-1.1 0-2 0.4-2 1 0 0.5-1.6 1-3.5 1-1.9 0-3.5 0.4-3.5 1 0 0.5-0.9 1-2 1-1.1 0-2 0.4-2 1 0 0.5-1.4 1-3 1-1.6 0-3 0.4-3 1 0 0.5-1.4 1-3 1q-3 0-3 1.5c0 0.8-0.9 1.5-2 1.5-1.1 0-2.2 0.4-2.5 1-0.3 0.5-1.9 1-3.5 1-1.6 0-3 0.4-3 1 0 0.5-1.4 1-3 1-1.6 0-3 0.4-3 1 0 0.5-1.4 1-3 1-1.6 0-3 0.4-3 1 0 0.5-2 1-4.5 1-2.5 0-4.5 0.4-4.5 1 0 0.6-3.5 1-8.5 1-6.2 0-8.9-0.4-10-1.5-1.2-1.2-1.5-4.3-1.5-14.5 0-10.9-0.2-13-1.5-13-1.2 0-1.5-1.7-1.5-9.5 0-5.7 0.4-9.5 1-9.5 0.5 0 2.4-1.4 4-3 1.6-1.7 3.7-3 4.5-3 0.8 0 1.5-0.5 1.5-1 0-0.6 1.4-1 3-1 1.6 0 3-0.5 3-1 0-0.6 1.4-1 3-1 1.6 0 3-0.5 3-1 0-0.6 2-1 4.5-1 3.3 0 4.5-0.4 4.5-1.5q0-1.5 3-1.5c1.6 0 3-0.5 3-1 0-0.6 1.4-1 3-1 1.6 0 3-0.5 3-1 0-0.6 1.6-1 3.5-1 1.9 0 3.5-0.5 3.5-1 0-0.6 0.9-1 2-1 1.1 0 2-0.5 2-1 0-0.6 1.4-1 3-1 1.6 0 3-0.5 3-1 0-0.6 0.9-1 2-1 1.1 0 2-0.5 2-1 0-0.6 1.4-1 3-1 1.6 0 3-0.5 3-1 0-0.6 1.1-1 2.5-1 1.4 0 2.5-0.5 2.5-1 0-0.6 0.9-1 2-1 1.1 0 2-0.5 2-1 0-0.6 1.4-1 3-1 1.6 0 3-0.5 3-1 0-0.6 0.9-1 2-1 1.1 0 2-0.7 2-1.5 0-0.8 0.9-1.5 2-1.5 1.1 0 2-0.5 2-1 0-0.6 1-1 2.2-1 1.3 0 3-0.9 3.8-2 0.8-1.1 2.3-2 3.2-2 1 0 1.8-0.5 1.8-1 0-0.6 0.9-1 2-1 1.1 0 2-0.5 2-1 0-0.6 0.9-1 2-1 1.1 0 2-0.5 2-1 0-0.6 0.7-1 1.5-1 0.8 0 2.9-1.4 4.5-3 1.6-1.7 3.9-3 5-3 1.1 0 2-0.5 2-1 0-0.6 0.7-1 1.6-1 0.8 0 2.2-0.7 3-1.5 0.8-0.8 1.4-1.7 1.4-2 0-0.3 0.6-1.2 1.4-2 0.8-0.8 2.2-1.5 3-1.5 0.9 0 1.6-0.5 1.6-1 0-0.6 0.8-1 1.7-1 1 0 2.5-0.9 3.3-2 0.8-1.1 2.1-2 2.7-2 0.7 0 1.3-0.5 1.3-1 0-0.6 0.7-1 1.5-1 0.8 0 3.7-2.3 6.5-5 2.7-2.8 5.7-5 6.5-5 0.8 0 1.5-0.5 1.5-1 0.1-0.6 1.6-2.6 3.5-4.5 1.9-1.9 3.8-3.5 4.2-3.6 0.4 0 4.2-3.6 8.3-7.9 7.3-7.6 7.7-7.9 12.2-7.9zm-920 4c1-0.1 3.6 1.7 5.8 3.9 2.2 2.2 4.6 4 5.2 4 0.7 0 5.9 4.7 11.5 10.5 5.7 5.8 10.7 10.5 11.3 10.5 0.5 0 2 0.8 3.1 1.7 1.2 1 3.2 2.8 4.5 4 1.3 1.3 2.7 2.3 3.1 2.3 0.5 0 2 1 3.5 2.3 1.5 1.2 2.7 2.8 2.8 3.4 0 0.7 0.9 1.3 2 1.3 1.1 0 2 0.4 2 1 0 0.5 0.9 1 2 1 1.1 0 2 0.4 2 1 0 0.5 0.7 1 1.5 1 0.8 0 1.5 0.4 1.5 1 0 0.5 0.9 1 2 1 1.1 0 2 0.3 2 0.7 0 0.5 1.2 1.4 2.8 2.1 1.5 0.7 3.3 1.2 3.9 1.2 0.7 0 1.3 0.4 1.3 1 0 0.5 0.6 1 1.2 1 0.7 0 2.3 0.9 3.5 2 1.3 1.1 3 2 3.8 2 0.8 0 1.7 0.4 2 1 0.3 0.5 1.4 1 2.5 1 1.1 0 2 0.4 2 1 0 0.5 0.9 1 2 1 1.1 0 2 0.4 2 1 0 0.5 0.9 1 2 1 1.1 0 2 0.7 2 1.5 0 0.8 0.9 1.5 2 1.5 1.1 0 2 0.4 2 1 0 0.5 1.3 1 3 1 1.6 0 3 0.4 3 1 0 0.5 1.1 1 2.5 1 1.4 0 2.5 0.4 2.5 1 0 0.5 0.9 1 2 1 1.1 0 2 0.4 2 1 0 0.5 1.3 1 3 1 1.6 0 3 0.4 3 1 0 0.5 0.9 1 2 1 1.1 0 2 0.4 2 1 0 0.5 1.3 1 3 1 1.6 0 3.2 0.4 3.5 1 0.3 0.5 1.8 1 3.5 1 1.6 0 3 0.4 3 1 0 0.5 1.3 1 3 1 1.6 0 3 0.4 3 1 0 0.5 1.3 1 3 1 1.6 0 3 0.4 3 1 0 0.5 1.3 1 3 1 1.8 0 3.2 0.6 3.5 1.5 0.3 0.9 1.7 1.5 3.5 1.5 1.6 0 3 0.4 3 1 0 0.5 1.3 1 3 1 1.6 0 3 0.4 3 1 0 0.5 1.3 1 3 1 1.6 0 3 0.4 3 1 0 0.5 1.6 1 3.5 1 1.9 0 3.5 0.4 3.5 1 0 0.5 0.7 1 1.5 1 0.8 0 2.2 0.7 3 1.5 1.2 1.2 1.5 4.7 1.5 18.5 0 10.7-0.4 17-1 17-0.6 0-1 2.7-1 6 0 5-0.4 6.4-2.5 8.5-2.1 2.2-3.3 2.5-9.5 2.5-4 0-7-0.4-7-1 0-0.6-2.3-1-5-1-2.8 0-5-0.5-5-1 0-0.6-1.6-1-3.5-1-1.9 0-3.5-0.5-3.5-1 0-0.6-1.4-1-3-1-1.7 0-3-0.5-3-1 0-0.6-1.4-1-3-1-1.7 0-3-0.5-3-1 0-0.6-1.4-1-3-1-1.7 0-3-0.5-3-1 0-0.6-1.4-1-3-1-1.8 0-3.2-0.6-3.5-1.5-0.3-0.8-1.4-1.5-2.5-1.5-1.1 0-2-0.5-2-1 0-0.6-1.4-1-3-1-1.7 0-3-0.5-3-1 0-0.6-1.4-1-3-1-1.7 0-3-0.5-3-1 0-0.6-1.1-1-2.5-1-1.4 0-2.5-0.5-2.5-1 0-0.6-0.9-1-2-1-1.1 0-2-0.5-2-1 0-0.6-1.4-1-3-1-1.7 0-3-0.5-3-1 0-0.6-0.9-1-2-1-1.1 0-2-0.5-2-1 0-0.6-0.9-1-2-1-1.1 0-2-0.5-2-1 0-0.6-0.9-1-2-1-1.1 0-2-0.5-2-1 0-0.6-0.7-1-1.5-1-0.8 0-1.5-0.5-1.5-1 0-0.6-0.9-1-2-1-1.1 0-2-0.5-2-1 0-0.6-0.7-1-1.5-1-0.8 0-1.7-0.7-2-1.5-0.3-0.8-1.3-1.5-2.3-1.5-0.9 0-2.4-0.9-3.2-2-0.8-1.1-2.2-2-3-2-0.8 0-2.2-0.9-3-2-0.8-1.1-2.4-2-3.5-2-1.1 0-2.7-0.9-3.5-2-0.8-1.1-2.2-2-3-2-0.8 0-2.2-0.9-3-2-0.8-1.1-2.1-2-2.8-2-0.6 0-2.3-1.1-3.7-2.5-1.4-1.4-2.5-3-2.5-3.5 0-0.6-0.9-1-2-1-1.1 0-2-0.5-2-1 0-0.6-0.7-1-1.5-1-0.8 0-1.5 0.9-1.5 2 0 1.1-0.5 2.2-1 2.5-0.6 0.3-1 2.3-1 4.5 0 2.2 0.4 4 1 4 0.5 0 1 2.2 1 5 0 2.7 0.4 5 1 5 0.5 0 1 1.3 1 3 0 1.8 0.6 3.2 1.5 3.5 0.8 0.3 1.5 1.4 1.5 2.5 0 1.1 0.4 2 1 2 0.5 0 1 0.8 1 1.7 0 1 0.9 2.5 2 3.3 1.1 0.8 2 2.1 2 2.7 0 0.7 1 2.4 2.2 3.7 1.3 1.3 3.1 3.3 4 4.5 1 1.1 1.8 2.7 1.8 3.3 0.1 0.7 2.6 3.5 5.6 6.3 3.1 2.7 7.7 7.2 10.2 9.8 2.6 2.6 7.3 7.5 10.4 10.7 3.2 3.3 6.2 6 6.8 6 0.5 0 1 0.4 1 1 0 0.5 0.6 1 1.2 1 0.7 0 2.3 0.9 3.5 2 1.3 1.1 2.9 2 3.5 2 0.7 0 2 0.9 2.8 2 0.8 1.1 1.9 2 2.5 2 0.5-0.1 1.9 1.1 3 2.5 1.1 1.4 2.8 2.5 3.7 2.5 1 0 1.8 0.4 1.8 1 0 0.5 1.1 1 2.5 1 1.4 0 2.5 0.4 2.5 1 0 0.5 0.9 1 2 1 1.1 0 2 0.4 2 1 0 0.5 0.6 1 1.2 1 0.7 0 2.3 0.9 3.5 2 1.3 1.1 3 2 3.8 2 0.8 0 1.5 0.4 1.5 1 0 0.5 0.9 1 2 1 1.1 0 2 0.4 2 1 0 0.5 0.9 1 2 1 1.1 0 2.2 0.4 2.5 1 0.3 0.5 1.4 1 2.5 1 1.1 0 2 0.4 2 1 0 0.5 0.9 1 2 1 1.1 0 2 0.4 2 1 0 0.5 0.7 1 1.5 1 0.8 0 1.7 0.7 2 1.5 0.3 0.8 1.4 1.5 2.5 1.5 1.1 0 2 0.4 2 1 0 0.5 0.9 1 2 1 1.1 0 2.2 0.4 2.5 1 0.3 0.5 1.6 1 3 1 1.4 0 2.7 0.4 3 1 0.3 0.5 1.4 1 2.5 1 1.1 0 2 0.4 2 1 0 0.5 1.3 1 3 1 1.6 0 3 0.4 3 1 0 0.5 1.3 1 3 1 1.6 0 3 0.4 3 1 0 0.5 0.8 1 1.7 1 1-0.1 3.1 1.2 7.4 5.5l-0.1 22.2c0 14.2-0.4 22.3-1 22.3-0.6 0-1 1.1-1 2.5 0 1.4-1.2 3.8-2.8 5.5-1.9 2-3.7 2.9-6 3-2 0-3.4-0.6-3.7-1.5-0.3-0.9-1.7-1.5-3.5-1.5-1.7 0-3-0.5-3-1 0-0.6-1.4-1-3-1-1.7 0-3-0.5-3-1 0-0.6-0.9-1-2-1-1.1 0-2-0.5-2-1 0-0.6-1.6-1-3.5-1-1.9 0-3.5-0.5-3.5-1 0-0.6-0.9-1-2-1-1.1 0-2-0.5-2-1 0-0.6-0.9-1-2-1-1.1 0-2-0.5-2-1 0-0.6-1.4-1-3-1-1.7 0-3-0.5-3-1 0-0.6-1.4-1-3-1-1.7 0-3-0.5-3-1 0-0.6-0.7-1-1.5-1-0.8 0-3.1-0.9-5-2-1.9-1.1-4.2-2-5-2-0.8 0-1.5-0.5-1.5-1 0-0.6-0.7-1-1.5-1-0.8 0-1.7-0.7-2-1.5-0.3-0.8-1.4-1.5-2.5-1.5-1.1 0-2-0.5-2-1 0-0.6-1.1-1-2.5-1-1.4 0-2.5-0.5-2.5-1 0-0.6-0.9-1-2-1-1.1 0-2-0.5-2-1 0-0.6-0.9-1-2-1-1.1 0-2-0.5-2-1 0-0.6-0.9-1-2-1-1.1 0-2-0.5-2-1 0-0.6-0.8-1-1.8-1-0.9 0-2.4-0.9-3.2-2-0.8-1.1-2.5-2-3.8-2-1.2 0-2.2-0.5-2.2-1 0-0.6-0.8-1-1.8-1-0.9 0-2.4-0.9-3.2-2-0.8-1.1-2-2-2.5-2-0.6 0-2.4-1.6-4-3.5-1.7-1.9-3.7-3.5-4.5-3.5-0.8 0-2.2-0.9-3-2-0.8-1.1-1.8-2-2.3-2-0.4 0-4.5-3.8-9.2-8.5-4.7-4.7-8.7-8.5-9-8.5-0.3 0-4.1-3.5-8.5-7.8-4.4-4.2-8-8.2-8-8.7 0-0.6-0.9-1.7-2-2.5-1.1-0.8-2-1.8-2-2.3 0-0.4-2.4-3.2-5.3-6.2-2.8-3-6.2-6.6-7.5-8-1.2-1.4-2.2-3.2-2.2-4 0-0.8-0.5-1.5-1-1.5-0.6 0-1-0.7-1-1.5 0-0.8-0.5-1.5-1-1.5-0.6 0-1-0.9-1-2 0-1.1-0.5-2-1-2-0.6 0-1-1.4-1-3 0-1.7-0.5-3-1-3-0.6 0-1-0.9-1-2 0-1.1-0.5-2-1-2-0.6 0-1-1.4-1-3 0-1.7-0.5-3-1-3-0.6 0-1-1.6-1-3.5 0-1.9-0.5-3.5-1-3.5-0.6 0-1-1.4-1-3 0-1.7-0.5-3-1-3-0.6 0-1-1.8-1-4 0-2.4-0.5-4.1-1.3-4.3-0.8-0.3-1.4-4.8-1.9-15.8-0.3-8.5-0.7-27.1-0.7-41.4-0.1-14.3 0.2-34.2 0.6-44.2 0.7-14.8 1.1-18.3 2.3-18.8 0.8-0.3 3.5-1.4 6-2.5 2.5-1 5.3-1.9 6.2-1.9zm460.8 30.9c6.1 0 7.3 0.3 9.5 2.5 1.4 1.4 2.5 3.2 2.5 4 0 0.8 0.5 1.5 1 1.5 0.6 0 1 2.8 1 6.5 0 3.7 0.4 6.5 1 6.5 0.7 0 1 41.7 1 123 0 81.3 0.3 123 1 123 0.6 0 1 3.5 1 8.5 0 6.9 0.3 8.5 1.5 8.5 0.8 0 2.8 1.3 4.5 3 1.6 1.6 3.6 3 4.2 3 0.7 0 2 0.9 2.8 2.1 0.8 1.1 2.5 3.3 3.7 4.7 1.2 1.5 3.2 4.9 4.4 7.7 1.2 2.7 2.5 5.8 3 6.7 0.5 1 0.9 7 0.9 13.3 0 7-0.4 11.5-1 11.5-0.5 0-1 1.3-1 3 0 1.6-0.5 3-1 3-0.5 0-1 0.8-1 1.7 0 1-0.9 2.5-2 3.3-1.1 0.8-2 2.2-2 3 0 0.8-0.8 2.3-1.8 3.3-0.9 1-2.4 1.7-3.2 1.7-0.8 0-2.2 0.9-3 2-0.8 1.1-2.3 2-3.3 2-0.9 0-1.7 0.4-1.7 1 0 0.5-0.9 1-2 1-1.1 0-2 0.4-2 1 0 0.5-0.9 1-2 1-1.1 0-2 0.4-2 1 0 0.5-1.4 1-3 1-1.7 0-3 0.4-3 1 0 0.6-4.2 1-10.5 1-6.3 0-10.5-0.4-10.5-1 0-0.6-0.9-1-2-1-1.1 0-2-0.5-2-1 0-0.6-1.1-1-2.5-1-1.4 0-2.5-0.5-2.5-1 0-0.6-0.8-1-1.8-1-0.9 0-2.4-0.9-3.2-2-0.8-1.1-2.2-2-3-2.1-0.8 0-3-1.7-4.8-3.7-1.8-2-3.2-4.4-3.3-5.2 0-0.8-0.8-2.2-1.7-3-1-0.8-2.5-2.7-3.5-4.3-1.4-2.2-1.7-5.1-1.7-16.2 0-8.3 0.4-13.5 1-13.5 0.5 0 1-0.9 1-2 0-1.1 0.7-2.7 1.5-3.5 0.8-0.8 1.5-2.2 1.5-3 0-0.8 0.4-1.5 1-1.5 0.5 0 1-0.7 1-1.5 0-0.8 0.4-1.5 1-1.5 0.5 0 1-0.7 1-1.5 0-0.8 1.1-2.6 2.5-4 1.3-1.4 3-2.5 3.7-2.5 0.7 0 2-0.9 2.8-2 0.8-1.1 2.3-2 3.2-2 1 0 1.8-0.5 1.8-1 0-0.6 1.1-1 2.5-1 2 0 2.5-0.5 2.5-2.5 0-1.4-0.5-2.5-1-2.5-0.6 0-1-1.1-1-2.5 0-1.4 0.6-2.5 1.2-2.5 1 0 1-0.2 0.2-0.8-0.7-0.4-1.2-4-1.3-9.2 0-5.8 0.3-8.7 1.2-9.2 0.9-0.6 0.9-0.8-0.1-0.8-0.9 0-1.3-6.9-1.5-30.3-0.1-16.6-0.2-65.9-0.2-109.6 0-62.7 0.3-79.5 1.2-79.8 1-0.2 1.3-3.8 1.3-13.8 0-10.3 0.3-13.9 1.4-15 0.8-0.8 2.2-1.5 3-1.5 0.9 0 1.6-0.5 1.6-1 0-0.6 0.9-1 2-1 1.1 0 2-0.5 2-1 0-0.6 3-1 7-1zm-10.3 305c-1.3 0-3.3 1.3-4.7 3-1.4 1.7-3.1 3-3.8 3-0.6 0-1.2 0.9-1.2 2 0 1.1-0.5 2-1 2-0.6 0-1 0.9-1 2 0 1.1-0.5 2-1 2-0.6 0-1 2.5-1 5.5 0 3 0.4 5.5 1 5.5 0.5 0 1 0.9 1 2 0 1.1 0.4 2 1 2 0.5 0 1 0.8 1 1.7 0.1 1 1.3 2.9 2.8 4.1 1.5 1.3 4 3.2 5.7 4.3 2.3 1.5 4.9 1.9 11.2 1.9 4.6 0 8.3-0.3 8.3-0.8 0-0.4 1.8-2.1 4-3.7 2.2-1.7 4-3.5 4-4 0-0.6 0.9-1.7 2-2.5 1.8-1.3 2-2.6 2-10.3v-8.7c-8.5-8.5-11.7-11-12.5-11-0.8 0-1.7-0.5-2-1-0.3-0.6-3.2-1-6.5-1-3.2 0-6.1 0.4-6.5 1-0.3 0.5-1.5 1-2.8 1z"/>
		<path id="Path 1" class="s1" d="m43 617c0 0.5-0.7 1-1.5 1-0.9 0-1.5 0.9-1.5 2.5 0 1.4 0.5 2.5 1 2.5 0.5 0 2.2-0.7 3.8-1.5 1.5-0.9 3.9-2 5.5-2.5 1.5-0.6 2.7-1.5 2.7-2 0-0.5-2.3-1-5-1-2.8 0-5 0.5-5 1z"/>
		<path id="Path 2" class="s1" d="m472.2 49.1c-0.4 1.7-1 3.3-1.4 3.5-0.5 0.2-0.8 2.9-0.8 5.9 0 3.9 0.4 5.4 1.3 5.2 0.6-0.2 1.4-1.4 1.5-2.8 0.2-1.3 0.8-2.9 1.3-3.4 0.5-0.5 0.9-3.4 0.9-6.3 0-2.8-0.5-5.2-1-5.2-0.6 0-1.4 1.4-1.8 3.1z"/>
		<path id="Path 3" fill-rule="evenodd" class="s0" d="m397.7 27c8.9 0 14.3 0.4 14.3 1 0 0.6 0.9 1 2 1 1.1 0 2 0.4 2 1 0 0.6 0.7 1 1.5 1 0.8 0 5.1 3.6 9.5 8 4.4 4.4 8 8.7 8 9.5 0 0.8 0.4 1.5 1 1.5 0.6 0 1 0.9 1 2 0 1.1 0.4 2 1 2 0.6 0 1 0.9 1 2 0 1.1 0.4 2.2 1 2.5 0.6 0.3 1 6.7 1 16 0 9.7-0.4 15.5-1 15.5-0.6 0-1 0.7-1 1.5 0 0.8-2.6 4-5.7 7-3.2 3.1-6.5 5.6-7.3 5.5-0.8 0-2.2 0.9-3 2-0.8 1.1-2.3 2-3.2 2-1.7 0-1.8 3.1-1.8 51.5 0 33.3 0.4 51.7 1 52 0.6 0.3 1 5 1 11 0 6-0.4 10.7-1 11-0.6 0.3-1 4.5-1 9.5 0 5.3-0.4 9-1 9-0.6 0-1 0.7-1 1.5 0 0.8-0.4 1.5-1 1.5-0.6 0-1 0.7-1 1.5 0 0.8-1.4 2.9-3 4.5-1.6 1.6-3 3.3-3 3.8 0 0.4-1 1.9-2.3 3.4-1.2 1.5-2.8 2.7-3.4 2.8-0.7 0-1.3 0.6-1.3 1.3 0 0.6-0.9 2.2-2 3.5-1.1 1.2-2 2.4-2 2.7 0 0.3-1.4 2-3 3.8-1.7 1.7-3.1 3.5-3 4 0 0.4-2.9 3.6-6.5 7.2-3.5 3.6-6.9 6.5-7.5 6.5-0.5 0-1 0.4-1 1 0 0.6-1.6 2.6-3.5 4.5-2.4 2.5-4.3 3.5-6.5 3.5-2.1 0-4-1-6.5-3.5-1.9-1.9-3.5-3.9-3.5-4.5 0-0.6-0.4-1-1-1-0.6 0-1-0.7-1-1.5 0-0.8-0.7-2.2-1.5-3-1-1-1.5-3.4-1.5-7 0-4 0.4-5.6 1.5-6 0.8-0.3 1.5-1.4 1.5-2.5 0-1.1 0.4-2 1-2 0.6 0 1-0.7 1-1.5 0-0.8 0.4-1.5 1-1.5 0.6 0 1-0.6 1-1.2-0.1-0.7 2.4-3.9 5.5-7 3-3.2 5.5-6.2 5.5-6.8 0-0.6 2.7-3.7 6-7 3.3-3.3 6-6.6 6-7.3 0-0.6 0.9-1.9 2-2.7 1.9-1.4 2-2.6 2-17.8 0-12.1 0.3-16.3 1.3-16.5 0.9-0.3 0.9-1.3-0.3-4.7-1.2-3.4-1.2-4.4-0.2-4.7 0.9-0.2 1.2-9.9 1.2-88.3h-3q-3 0-3-1.5c0-0.9-0.9-1.5-2.5-1.5-1.4 0-2.5-0.5-2.5-1 0-0.5-0.6-1-1.2-1-0.7 0-3-1.4-5-3.2-2-1.8-3.7-4-3.7-4.8-0.1-0.8-1-2.2-2.1-3-1.1-0.8-2-2.3-2-3.3 0-0.9-0.4-1.7-1-1.7-0.6 0-1-1.1-1-2.5 0-1.4-0.4-2.5-1-2.5-0.6 0-1-0.9-1-2 0-1.1-0.4-2-1-2-0.6 0-1-4.5-1-11.5 0-7 0.4-11.5 1-11.5 0.6 0 1-1.4 1-3 0-1.7 0.4-3 1-3 0.6 0 1-0.8 1-1.8 0-0.9 0.9-2.4 2-3.2 1.1-0.8 2-2.1 2-2.8 0-0.6 1.7-3 3.8-5.2 2.1-2.2 4.1-4 4.5-4 0.4 0 1.7-0.9 3-2 1.2-1.1 2.9-2 3.7-2 0.8 0 2.1-0.9 2.9-2 1.4-1.8 2.6-2 15.8-2zm-7.5 23.8c-1.5 0.7-3.3 1.2-3.9 1.2-0.7 0-1.3 0.7-1.3 1.5 0 0.8-1 1.7-2.2 2.1-1.6 0.4-2.6 1.8-3.5 5-0.7 2.4-1.7 4.4-2.3 4.4-0.6 0-1 2.5-1 5.5 0 3 0.3 5.5 0.8 5.5 0.4 0 1.6 1.6 2.7 3.6 1.1 2 3.4 5.1 5 7 1.6 1.8 3.8 3.3 4.8 3.4 0.9 0 1.7 0.4 1.7 1 0 0.6 3.3 1 8 1 7 0 8.4-0.3 10.4-2.3 1.3-1.2 3.2-3 4.2-3.9 1.1-0.9 2.5-2.4 3.2-3.2 0.6-0.9 1.2-2.1 1.2-2.6 0-0.6 0.4-1 1-1 0.6 0 1-3.3 1-8 0-4.6-0.5-8.9-1.2-10.2-0.7-1.2-2.8-3.7-4.5-5.5-1.8-1.8-3.7-3.3-4.3-3.3-0.6 0-2-0.9-3.2-2-1.8-1.6-3.7-2-8-2-3.2 0-5.8 0.3-5.8 0.7 0 0.5-1.2 1.4-2.8 2.1zm239.3-23.8c9 0 14.5 0.4 14.5 1 0 0.5 0.9 1 2 1 1.1 0 2 0.4 2 1 0 0.5 0.7 1 1.5 1 0.8 0 2.6 1.1 4 2.5 1.4 1.4 2.5 2.9 2.5 3.5 0 0.5 0.7 1 1.5 1 0.8 0 2.6 1.1 4 2.5 1.4 1.4 2.5 3.2 2.5 4 0 0.8 0.5 1.5 1 1.5 0.5 0 1.6 0.6 2.3 1.2 0.7 0.7 2.3 3 3.5 5 2 3.5 2.2 5.1 2.2 19.3 0 9.3-0.4 15.7-1 16-0.5 0.3-1 1.4-1 2.5 0 1.1-0.5 2-1 2-0.5 0-1 0.6-1 1.2-0.1 0.7-1.4 2.5-3 4-1.7 1.6-3.5 2.8-4 2.8-0.5 0-2.4 1.3-4 3-1.6 1.7-3.5 3-4 3-0.6 0-2.2 1.1-3.5 2.5-2.2 2.2-2.5 3.4-2.5 10.5 0 4.4-0.5 8.2-1 8.5-0.6 0.3-1 9.5-1 24.5 0 15-0.4 24.2-1 24.5-0.6 0.3-1 13.3-1 71l9 9.5c5 5.2 9.1 9.8 9 10.2 0 0.5 2.5 3.2 5.5 6 3 2.9 5.5 6 5.5 6.8 0 0.8 0.9 2.2 2 3 1.4 1.1 2 2.7 2 5.5 0 3.7-0.5 4.5-7 10.2-3.8 3.5-7.8 6.3-8.8 6.3-0.9 0.1-3.1-1.5-4.7-3.4-1.6-1.9-3.6-3.5-4.3-3.6-0.6 0-5.7-4.4-11.2-9.8-5.5-5.3-10-10.3-10-11 0-0.6-4.3-5.4-9.5-10.5-5.2-5-9.5-9.9-9.5-10.7 0-0.8-0.5-1.9-1.1-2.5-0.8-0.7-0.8-1.6 0-3.3 0.8-1.5 1.1-23.5 1.1-138.7l-2.3-2.7c-1.2-1.5-2.8-2.7-3.5-2.8-0.6 0-2.8-1.6-4.7-3.5-1.9-1.9-3.5-4-3.5-4.5 0-0.6-0.5-1-1-1-0.5 0-1-0.6-1-1.3-0.1-0.6-0.9-1.9-1.8-2.7-1-0.8-2.5-2.7-3.5-4.3-0.9-1.5-1.7-3.8-1.7-5.2 0-1.4-0.5-2.5-1-2.5-0.6 0-1-4.3-1-11 0-6.3 0.4-11.2 1-11.5 0.5-0.3 1-1.6 1-3 0-1.4 0.7-4 1.6-5.8 1-1.7 2.6-3.9 3.6-4.8 1.1-0.9 2-2.1 1.9-2.8-0.1-0.6 1.1-2.4 2.6-4.1 1.6-1.6 3.2-2.9 3.7-3 0.5 0 2.3-1.4 3.9-3 1.7-1.7 4.1-3 5.4-3 1.2 0 2.5-0.5 2.8-1 0.4-0.6 6.4-1 15-1zm-9.7 23.9c-1.8 0.8-4.3 2.6-5.5 4-1.3 1.4-2.3 3.2-2.3 3.8 0 0.7-0.5 1.3-1 1.3-0.6 0-1 3.5-1 8.5 0 5 0.4 8.5 1 8.5 0.5 0 1 0.7 1 1.5 0 0.8 0.8 2.5 1.7 3.6 1 1.2 2.7 3 3.8 4 1.1 1.1 2.7 1.9 3.5 1.9 0.8 0 2.2 0.9 3 2 1.2 1.6 2.6 2 7.2 2 3.2 0 5.8-0.5 5.8-1 0-0.6 0.7-1 1.5-1 0.8 0 1.5-0.5 1.5-1 0-0.6 0.7-1 1.5-1 0.9 0 3.1-1.6 5-3.5 1.9-1.9 3.5-4.1 3.5-4.8 0-0.6 0.9-2.2 2-3.5 1.5-1.6 2-3.6 2-7.5 0-3.8-0.5-5.8-2-7.5-1.1-1.2-2-2.7-2-3.2 0-0.6-1.6-2.6-3.5-4.5-1.9-1.9-4.2-3.5-5-3.5-0.8 0-1.5-0.5-1.5-1 0-0.6-3.5-1-8.5-1-4.7 0-8.5 0.3-8.5 0.7 0 0.5-1.5 1.4-3.2 2.2zm92 22.2c2.8-0.1 5.2 0.3 5.2 0.9 0 0.5 1.4 1 3 1 1.6 0 3 0.4 3 1 0 0.5 1.8 1 4 1 2.2 0 4 0.4 4 1 0 0.5 1.4 1 3 1 1.6 0 3.2 0.4 3.5 1 0.3 0.5 2.3 1 4.5 1 2.2 0 4 0.4 4 1 0 0.5 1.4 1 3 1 1.6 0 3 0.4 3 1 0 0.5 1.6 1 3.5 1 2.2 0 3.7 0.5 4 1.5 0.3 1 1.8 1.5 4 1.5 1.9 0 3.5 0.4 3.5 1 0 0.5 1.4 1 3 1 1.6 0 3 0.4 3 1 0 0.5 1.4 1 3 1 1.6 0 3 0.4 3 1 0 0.5 1.4 1 3 1 1.6 0 3.2 0.4 3.5 1 0.3 0.5 1.9 1 3.5 1 1.6 0 3 0.4 3 1 0 0.5 1.4 1 3 1 1.6 0 3 0.4 3 1 0 0.5 0.9 1 2 1 1.1 0 2 0.4 2 1 0 0.5 1.4 1 3 1 1.6 0 3 0.4 3 1 0 0.5 1.1 1 2.5 1 1.4 0 2.5 0.4 2.5 1 0 0.5 0.9 1 2 1 1.1 0 2 0.4 2 1 0 0.5 1.4 1 3 1q3 0 3 1.5c0 0.8 0.9 1.5 2 1.5 1.1 0 2 0.4 2 1 0 0.5 0.9 1 2 1 1.1 0 2 0.4 2 1 0 0.5 1.1 1 2.5 1 1.4 0 2.5 0.4 2.5 1 0 0.5 0.9 1 2 1 1.1 0 2 0.4 2 1 0 0.5 0.9 1 2 1 1.1 0 2 0.4 2 1 0 0.5 0.9 1 2 1 1.1 0 2 0.4 2 1 0 0.5 0.9 1 2 1 1.1 0 2 0.4 2 1 0 0.5 0.9 1 2 1 1.1 0 2 0.4 2 1 0 0.5 1 1 2.2 1 1.3 0 3 0.9 3.8 2 0.8 1.1 2.1 2 2.7 2 0.7 0 2 0.6 2.8 1.2 0.9 0.7 2.2 1.9 3 2.5 0.8 0.7 2.1 1.3 2.7 1.3 0.7 0 2 0.9 2.8 2 0.8 1.1 2.5 2 3.7 2 1.3 0 2.3 0.4 2.3 1 0 0.5 0.8 1 1.7 1 1 0 2.5 0.9 3.3 2 0.8 1.1 2.3 2 3.2 2 1 0 1.8 0.4 1.8 1 0 0.5 0.7 1 1.5 1 0.8 0 2.9 1.3 4.5 3 1.6 1.6 3.6 3 4.2 3 0.7 0.1 3.2 2.1 5.5 4.5 2.4 2.5 4.8 4.5 5.3 4.5 0.5 0 4.6 3.6 9 8 4.4 4.4 8.5 8 9 8 0.5 0 1 0.4 1 1 0 0.5 1.1 2.1 2.5 3.5 1.4 1.4 3.2 2.5 4 2.5 0.8 0 1.5 0.7 1.5 1.5 0 0.8 2.7 4.2 6 7.5 3.3 3.3 6 6.4 6 7 0 0.5 1.6 2.6 3.5 4.5 1.9 1.9 3.5 4.2 3.5 5 0 0.8 0.5 1.5 1 1.5 0.5 0 1 0.9 1 2 0 1.1 0.5 2 1 2 0.5 0 1 0.9 1 2 0 1.1 0.5 2 1 2 0.5 0 1 0.9 1 2 0 1.1 0.5 2 1 2 0.5 0 1 1.1 1 2.5 0 1.4 0.5 2.5 1 2.5 0.5 0 1 1.3 1 3 0 1.6 0.5 3 1 3 0.5 0 1 0.9 1 2 0 1.1 0.5 2 1 2 0.5 0 1 1.8 1 4 0 2.2 0.5 4 1 4 0.5 0 1 2 1 4.5 0 3.3 0.4 4.5 1.5 4.5 1.1 0 1.5 1.1 1.5 4 0 2.2 0.5 4 1 4 0.5 0 1 1.8 1 4 0 2.2 0.5 4 1 4 0.6 0 1 2.8 1 6.5 0 3.7 0.4 6.5 1 6.5 0.7 0 1 15.7 1 45 0 29.3-0.3 45-1 45-0.6 0-1 4.3-1 11 0 6.3-0.4 11.2-1 11.5-0.5 0.3-1 2.3-1 4.5 0 2.2-0.5 4-1 4-0.5 0-1 0.7-1 1.5 0 0.8-0.7 1.7-1.5 2-0.8 0.3-1.5 1.4-1.5 2.5 0 1.1-0.5 2-1 2-0.5 0-1 0.9-1 2 0 1.1-0.5 2-1 2-0.5 0-1 0.9-1 2 0 1.1-1.4 3.4-3 5-1.6 1.6-3 3.4-3 4 0 0.5-2.5 3.5-5.5 6.5-3 3-5.7 5.5-6 5.5-0.4 0-1.3 0.7-2.1 1.5-0.8 0.8-1.4 1.7-1.4 2 0 0.3-4.7 5.2-10.5 11-6.4 6.4-11.3 10.5-12.5 10.5-1.1 0-2 0.4-2 1 0 0.5-0.9 1-2 1-1.1 0-2 0.4-2 1 0 0.5-1.1 2.1-2.5 3.5-1.3 1.4-3.1 2.5-4 2.5-0.8 0-1.5 0.4-1.5 1 0 0.5-0.9 1-2 1-1.1 0-2 0.4-2 1 0 0.5-1.6 1-3.5 1-1.9 0-3.5 0.4-3.5 1 0 0.5-0.9 1-2 1-1.1 0-2 0.4-2 1 0 0.5-0.9 1-2 1-1.1 0-2 0.4-2 1 0 0.5-1.4 1-3 1-1.6 0-3 0.4-3 1 0 0.5-0.9 1-2 1-1.1 0-2 0.4-2 1 0 0.5-1.6 1-3.5 1-1.9 0-3.5 0.4-3.5 1 0 0.5-1.4 1-3 1q-3 0-3 1.5 0 1.5-3 1.5c-1.6 0-3 0.4-3 1 0 0.5-0.9 1-2 1-1.1 0-2 0.4-2 1 0 0.5-1.6 1-3.5 1-1.9 0-3.5 0.4-3.5 1 0 0.5-1.4 1-3 1-1.6 0-3 0.4-3 1 0 0.5-1.4 1-3 1-1.6 0-3 0.4-3 1 0 0.5-1.4 1-3 1-1.6 0-3 0.4-3 1 0 0.5-1.6 1-3.5 1-1.9 0-3.5 0.4-3.5 1 0 0.5-1.8 1-4 1-2.2 0-4 0.4-4 1 0 0.5-1.4 1-3 1-1.6 0-3 0.4-3 1 0 0.5-1.6 1-3.5 1-1.9 0-3.5 0.5-3.5 1 0 0.5-1.8 1-4 1-2.2 0-4 0.5-4 1 0 0.5-1.8 1-4 1-2.9 0-4 0.4-4 1.5q0 1.5-3 1.5-3 0-3-1.5c0-0.8-0.7-1.5-1.5-1.5-1.2 0-1.5-1.4-1.5-7 0-5.6 0.3-7 1.5-7 1.2 0 1.5-1.3 1.5-6 0-5 0.4-6.4 2.5-8.5 1.3-1.4 3-2.5 3.7-2.5 0.7 0 2-0.9 2.8-2 0.9-1.2 2.6-2 4.2-2 1.6 0 2.8-0.5 2.8-1 0-0.6 0.9-1 2-1 1.1 0 2-0.5 2-1 0-0.6 1.1-1 2.5-1 1.4 0 2.5-0.5 2.5-1 0-0.6 0.9-1 2-1 1.1 0 2-0.5 2-1 0-0.6 1.4-1 3-1 1.6 0 3-0.5 3-1 0-0.6 0.9-1 2-1 1.1 0 2-0.5 2-1 0-0.6 1.4-1 3-1 1.8 0 3.2-0.6 3.5-1.5 0.3-0.8 1.4-1.5 2.5-1.5 1.1 0 2-0.5 2-1 0-0.6 0.9-1 2-1 1.1 0 2-0.5 2-1 0-0.6 1.4-1 3-1 1.6 0 3-0.5 3-1 0-0.6 1.4-1 3-1 1.6 0 3-0.5 3-1 0-0.6 0.9-1 2-1 1.1 0 2-0.5 2-1 0-0.6 1.1-1 2.5-1 1.4 0 2.5-0.5 2.5-1 0-0.6 0.9-1 2-1 1.1 0 2-0.5 2-1 0-0.6 0.9-1 2-1 1.1 0 2-0.5 2-1 0-0.6 0.9-1 2-1 1.1 0 2-0.5 2-1 0-0.6 0.9-1 2-1 1.1 0 2-0.5 2-1 0-0.6 1.1-1 2.5-1 1.6 0 2.5-0.6 2.5-1.5 0-0.8 0.8-1.5 1.7-1.5 1 0 2.5-0.9 3.3-2 0.8-1.1 2.2-2 3-2 0.8 0 2.2-0.9 3-2 0.8-1.1 2.1-2 2.7-2 0.7 0 2.7-1.4 4.3-3 1.6-1.6 3.7-3 4.5-3 0.9 0 3.6-2 6-4.5 2.5-2.5 4.5-4.7 4.5-5 0-0.3 2.7-3.2 6-6.5 3.3-3.3 6-6.7 6-7.5 0-0.8 0.5-1.5 1-1.5 0.6 0 2.2-1.1 3.5-2.5 1.4-1.4 2.5-3.3 2.5-4.3 0-0.9 0.9-2.4 2-3.2 1.1-0.8 2-2.3 2-3.3 0-0.9 0.5-1.7 1-1.7 0.5 0 1-0.9 1-2 0-1.1 0.5-2 1-2 0.5 0 1-2.3 1-5 0-2.8 0.5-5 1-5 0.5 0 1-1.6 1-3.5 0-1.9-0.5-3.5-1-3.5-0.6 0-1-3-1-7 0-5.6-0.3-7-1.5-7-0.9 0-3.5 1.9-5.9 4.3-2.4 2.3-5.3 5-6.5 5.9-1.1 1-2.6 1.8-3.1 1.8-0.6 0-2.6 1.6-4.5 3.5-1.9 1.9-3.5 3.7-3.5 4 0 0.3-1.1 1.6-2.5 3-1.3 1.4-3 2.5-3.7 2.5-0.7 0-2 0.9-2.8 2-0.8 1.1-2.1 2-2.8 2-0.6 0-1.2 0.4-1.2 1 0 0.5-0.7 1-1.5 1-0.8 0-2.9 1.4-4.5 3-1.6 1.6-3.6 3-4.3 3-0.6 0-1.9 0.9-2.7 2-0.8 1.1-2.3 2-3.3 2-0.9 0-1.7 0.4-1.7 1 0 0.5-1.6 1.7-3.5 2.5-1.9 0.8-3.5 1.9-3.5 2.5 0 0.5-0.9 1-2 1-1.1 0-2 0.4-2 1 0 0.5-0.9 1-2 1-1.1 0-2 0.4-2 1 0 0.5-0.9 1-2 1-1.1 0-2 0.4-2 1 0 0.5-0.9 1-2 1-1.1 0-2 0.4-2 1 0 0.5-1.6 1-3.5 1-1.9 0-3.5 0.4-3.5 1 0 0.5-0.9 1-2 1-1.1 0-2 0.4-2 1 0 0.5-1.4 1-3 1-1.6 0-3 0.4-3 1 0 0.5-0.9 1-2 1-1.1 0-2 0.4-2 1 0 0.5-0.9 1-2 1-1.1 0-2 0.4-2 1 0 0.5-1.6 1-3.5 1-2.4 0-3.5 0.5-3.5 1.5q0 1.5-3 1.5c-1.6 0-3 0.4-3 1 0 0.5-0.9 1-2 1-1.1 0-2 0.4-2 1 0 0.5-1.4 1-3 1-1.6 0-3 0.4-3 1 0 0.5-1.6 1-3.5 1-1.9 0-3.5 0.4-3.5 1 0 0.5-1.4 1-3 1-1.6 0-3 0.4-3 1 0 0.5-2 1-4.5 1-3.5 0-5.1-0.6-9.5-5v-23.5c0-22.8 0.1-23.5 2-23.5 1.1 0 2-0.5 2-1 0-0.6 1.4-1 3-1 1.6 0 3-0.5 3-1 0-0.6 1.4-1 3-1 1.6 0 3-0.5 3-1 0-0.6 1.6-1 3.5-1 1.9 0 3.5-0.5 3.5-1 0-0.6 1.4-1 3-1q3 0 3-1.5c0-0.8 0.9-1.5 2-1.5 1.1 0 2-0.5 2-1 0-0.6 1.4-1 3-1 1.6 0 3-0.5 3-1 0-0.6 1.6-1 3.5-1 1.9 0 3.5-0.5 3.5-1 0-0.6 0.9-1 2-1 1.1 0 2-0.5 2-1 0-0.6 0.9-1 2-1 1.1 0 2-0.5 2-1 0-0.6 0.9-1 2-1 1.1 0 2-0.5 2-1 0-0.6 0.9-1 2-1 1.1 0 2-0.5 2-1 0-0.6 0.9-1 2-1 1.1 0 2-0.5 2-1 0-0.6 1-1 2.2-1 1.3 0 3-0.9 3.8-2 0.8-1.1 2.3-2 3.2-2 1 0 1.8-0.5 1.8-1 0-0.6 0.6-1.7 1.4-2.5 0.8-0.8 1.9-1.5 2.5-1.5 0.6 0 2.5-1.4 4.1-3 1.6-1.6 3.7-3 4.5-3 0.8 0 1.5-0.5 1.5-1 0-0.6 0.5-1 1-1 0.6 0 4-2.9 7.5-6.5 3.6-3.6 6.5-6.7 6.5-7 0-0.3 1.4-1.9 3-3.5 1.6-1.6 3-3.6 3-4.3 0-0.6 0.9-1.9 2-2.7 1.1-0.8 2-2.3 2-3.3 0-0.9 0.5-1.7 1-1.7 0.6 0 2.2-1.1 3.5-2.5 1.4-1.4 2.5-3.4 2.5-4.5 0-1.1 0.5-2 1-2 0.5 0 1-0.9 1-2 0-1.1 0.5-2 1-2 0.5 0 1-0.9 1-2 0-1.1 0.5-2 1-2 0.5 0 1-0.9 1-2 0-1.1 0.5-2 1-2 0.5 0 1-0.9 1-2 0-1.1 0.5-2 1-2 0.5 0 1-0.9 1-2 0-1.1 0.5-2 1-2 0.5 0 1-2.5 1-5.5 0-3 0.5-5.5 1-5.5 0.5 0 1-0.9 1-2 0-1.1-0.5-2-1-2-0.6 0-1-2.8-1-6.5 0-3.7-0.4-6.5-1-6.5-0.5 0-1-1.4-1-3 0-1.7-0.5-3-1-3-0.5 0-1-0.9-1-2 0-1.1-0.5-2-1-2-0.5 0-1-0.9-1-2 0-1.1-0.5-2-1-2-0.5 0-1-0.9-1-2 0-1.1-0.5-2-1-2-0.5 0-1-0.9-1-2 0-1.1-1.4-3.4-3-5-1.6-1.7-3-3.7-3-4.5 0-0.8-0.5-1.5-1-1.5-0.5 0-4.4-3.4-8.5-7.5-4.1-4.1-7.5-7.7-7.5-8 0-0.3-1.1-1.6-2.5-3-1.4-1.4-3.2-2.5-4-2.5-0.8 0-1.5-0.5-1.5-1 0-0.6-0.5-1-1-1-0.5 0-2.4-1.4-4-3-1.6-1.7-3.6-3-4.3-3-0.6 0-1.9-0.9-2.7-2-0.8-1.1-2.2-2-3-2-0.8 0-2.2-0.9-3-2-0.8-1.1-2.3-2-3.3-2-0.9 0-1.7-0.7-1.7-1.5 0-0.9-0.9-1.5-2.3-1.5-1.2 0-2.9-0.9-3.7-2-0.8-1.1-2.3-2-3.3-2-0.9 0-1.7-0.5-1.7-1 0-0.6-0.8-1-1.8-1-0.9 0-2.4-0.9-3.2-2-0.8-1.1-2.3-2-3.3-2-0.9 0-1.7-0.5-1.7-1 0-0.6-0.9-1-2-1-1.1 0-2-0.5-2-1 0-0.6-1.1-1-2.5-1-1.4 0-2.5-0.5-2.5-1 0-0.6-0.9-1-2-1-1.1 0-2-0.5-2-1 0-0.6-0.9-1-2-1-1.1 0-2-0.5-2-1 0-0.6-0.9-1-2-1-1.1 0-2-0.5-2-1 0-0.6-0.9-1-2-1-1.1 0-2-0.7-2-1.5 0-0.9-0.9-1.5-2.5-1.5-1.4 0-2.5-0.5-2.5-1 0-0.6-0.9-1-2-1-1.1 0-2-0.5-2-1 0-0.6-0.9-1-2-1-1.1 0-2-0.5-2-1 0-0.6-1.4-1-3-1-1.6 0-3-0.5-3-1 0-0.6-1.4-1-3-1-1.6 0-3-0.5-3-1 0-0.6-1.6-1-3.5-1-1.9 0-3.5-0.5-3.5-1 0-0.6-0.9-1-2-1-1.1 0-2-0.5-2-1 0-0.6-1.4-1-3-1-1.6 0-3-0.5-3-1 0-0.6-1.4-1-3-1-1.6 0-3-0.5-3-1 0-0.6-1.6-1-3.5-1-1.9 0-3.5-0.5-3.5-1 0-0.6-1.4-1-3-1q-3 0-3-1.5 0-1.5-3-1.5c-1.6 0-3-0.5-3-1 0-0.6-1.8-1-4-1-2.2 0-4-0.5-4-1 0-0.6-2-1-4.5-1-2.5 0-4.5-0.5-4.5-1 0-0.6-1.8-1-4-1-2.2 0-4-0.5-4-1 0-0.6-1.4-1-3-1-1.6 0-3-0.5-3-1 0-0.6-1.6-1-3.5-1-1.9 0-3.5-0.5-3.5-1 0-0.6-0.7-1-1.5-1-0.8 0-2.2-0.7-3-1.5-1.1-1.1-1.5-3.8-1.5-10.5 0-5.3-0.4-9-1-9-0.6 0-1-3-1-7 0-3.9 0.5-7.2 1-7.5 0.5-0.3 1-2.1 1-4 0-2.2 0.8-4.4 2.2-5.9 1.9-2 3.3-2.5 7.5-2.5zm-404.3 2.3c5.6 0.4 12 1.4 14.4 2.4 2.8 1.1 4.3 2.3 4.2 3.4 0 1 0.4 1.8 1 1.8 0.6 0 1 2.5 1 5.5 0 4 0.4 5.6 1.5 6 1.2 0.4 1.5 2.4 1.5 10 0 7.6-0.3 9.6-1.5 10-0.8 0.3-1.5 1.4-1.5 2.5 0 1.2-0.7 2-1.7 2-1 0-2.5 0.9-3.3 2-0.9 1.2-2.6 2-4.2 2-1.6 0-2.8 0.4-2.8 1 0 0.5-1.4 1-3 1-1.6 0-3 0.4-3 1 0 0.5-1.6 1-3.5 1-1.9 0-3.5 0.4-3.5 1 0 0.5-1.4 1-3 1-1.6 0-3 0.4-3 1 0 0.5-1.8 1-4 1-2.2 0-4 0.4-4 1 0 0.5-1.4 1-3 1-1.8 0-3.2 0.6-3.5 1.5-0.3 0.9-1.7 1.5-3.5 1.5-1.6 0-3.2 0.4-3.5 1-0.3 0.5-1.6 1-3 1-1.4 0-2.5 0.4-2.5 1 0 0.5-1.4 1-3 1-1.6 0-3 0.4-3 1 0 0.5-1.6 1-3.5 1-1.9 0-3.5 0.4-3.5 1 0 0.5-0.9 1-2 1-1.1 0-2 0.4-2 1 0 0.5-1.3 1-3 1-1.6 0-3 0.4-3 1 0 0.5-0.9 1-2 1-1.1 0-2 0.4-2 1 0 0.5-1.3 1-3 1-1.6 0-3 0.4-3 1 0 0.5-1.1 1-2.5 1-1.4 0-2.5 0.4-2.5 1 0 0.5-0.9 1-2 1-1.1 0-2 0.4-2 1 0 0.5-1.3 1-3 1-1.6 0-3 0.4-3 1 0 0.5-2.4 2.1-5.2 3.5-2.9 1.4-5.9 2.5-6.5 2.5-0.7 0-1.3 0.4-1.3 1 0 0.5-0.9 1-2 1-1.1 0-2 0.4-2 1 0 0.5-0.6 1-1.2 1-0.7 0-2.5 0.5-4 1.2-1.6 0.7-2.8 1.6-2.8 2 0 0.5-0.9 0.8-2 0.8-1.1 0-2 0.4-2 1 0 0.5-0.9 1-2 1-1.1 0-2.2 0.4-2.5 1-0.3 0.5-1.4 1-2.5 1-1.1 0-2 0.4-2 1 0 0.5-0.8 1-1.7 1-1 0-2.5 0.9-3.3 2-0.8 1.1-2.3 2-3.2 2-1 0-1.8 0.4-1.8 1 0 0.5-1.8 1.8-4 2.7-2.2 1-4 2.1-4 2.5 0 0.5-1 0.8-2.2 0.8-1.3 0-3 0.9-3.8 2-0.8 1.1-2.2 2-3 2-0.8 0-2.2 0.9-3 2-0.8 1.1-2.1 2-2.7 2-0.7 0-3.1 1.8-5.3 4-2.2 2.2-4.4 4-5 4-0.6 0-5.1 4-10 9-4.9 4.9-9 9.4-9 10 0 0.5-1.3 2.3-3 4-1.6 1.6-3 3.6-3 4.2 0.1 0.7-1.1 2.2-2.5 3.3-1.4 1.1-2.5 2.8-2.5 3.7 0 1-0.4 1.8-1 1.8-0.5 0-1 1.3-1 3 0 1.6-0.4 3-1 3-0.5 0-1 0.9-1 2 0 1.1-0.4 2.2-1 2.5-0.6 0.3-1 5.3-1 12 0 7 0.4 11.5 1 11.5 0.6 0 1 1.4 1 3 0 1.6 0.5 3 1 3 0.6 0 1 1.4 1 3 0 1.6 0.5 3 1 3 0.6 0 1 0.9 1 2 0 1.1 0.5 2 1 2 0.6 0 1 0.9 1 2 0 1.1 0.6 2 1.3 2 0.6 0 2.3 1.9 3.6 4.2 1.3 2.4 2.9 5.3 3.5 6.5 0.6 1.3 1.4 2.3 1.9 2.3 0.4 0 0.7 0.7 0.7 1.5 0 0.8 1.4 2.9 3 4.5 1.7 1.6 3 3.4 3 4 0 0.5 1.4 2.4 3 4 1.7 1.6 3 3.4 3 4 0 0.5 0.6 1 1.3 1 0.6 0 1.9 0.9 2.7 2 0.8 1.1 1.9 2 2.5 2 0.6-0.1 2.9 1.7 5.3 4 2.3 2.2 4.8 4 5.5 4 0.6 0 1.9 0.9 2.7 2 0.8 1.1 2.3 2 3.3 2 0.9 0 1.7 0.4 1.7 1 0 0.5 0.7 1 1.5 1 0.8 0 1.5 0.3 1.5 0.7 0 0.5 1.5 1.5 3.2 2.3 1.8 0.8 4.3 2.5 5.6 3.7 1.2 1.3 2.9 2.3 3.7 2.3 0.8 0 1.5 0.4 1.5 1 0 0.5 1.4 1 3 1 1.7 0 3 0.4 3 1 0 0.5 0.9 1 2 1 1.1 0 2 0.4 2 1 0 0.5 1.1 1 2.5 1 1.4 0 2.5 0.4 2.5 1 0 0.5 0.9 1 2 1 1.1 0 2 0.4 2 1 0 0.5 0.9 1 2 1 1.1 0 2 0.4 2 1 0 0.5 0.9 1 2 1 1.1 0 2 0.4 2 1 0 0.5 0.9 1 2 1 1.1 0 2 0.4 2 1 0 0.5 1 1 2.3 1 1.2 0 3.7 0.6 5.5 1.5 1.7 0.8 3.2 1.9 3.2 2.5 0 0.5 0.9 1 2 1 1.1 0 2 0.4 2 1 0 0.5 0.9 1 2 1 1.1 0 2 0.4 2 1 0 0.5 0.9 1 2 1 1.1 0 2 0.4 2 1 0 0.5 0.4 1 1 1 0.6 0 2.1 1.1 3.5 2.5 1.6 1.6 2.5 3.6 2.5 5.5 0 1.6 0.4 3.2 1 3.5 0.6 0.3 1 8 1 20 0 15.5-0.3 19.8-1.4 21-1.1 1.1-3.7 1.5-9.5 1.5-4.7 0-8.1-0.4-8.1-1 0-0.6-1.3-1-3-1-1.6 0-3-0.5-3-1 0-0.6-1.3-1-3-1-1.6 0-3-0.5-3-1 0-0.6-1.6-1-3.5-1-1.9 0-3.5-0.5-3.5-1 0-0.6-1.3-1-3-1-1.6 0-3-0.5-3-1 0-0.6-0.9-1-2-1-1.1 0-2-0.7-2-1.5q0-1.5-3-1.5c-1.6 0-3-0.5-3-1 0-0.6-1.1-1-2.5-1-1.4 0-2.5-0.5-2.5-1 0-0.6-0.9-1-2-1-1.1 0-2-0.5-2-1 0-0.6-1.3-1-3-1-1.6 0-3-0.5-3-1 0-0.6-0.9-1-2-1-1.1 0-2-0.5-2-1 0-0.6-0.9-1-2-1-1.1 0-2-0.5-2-1 0-0.6-0.9-1-2-1-1.1 0-2-0.5-2-1 0-0.6-0.8-1-1.7-1-1 0-2.8-0.9-4-2-1.3-1.1-3-2-3.8-2-0.8 0-1.5-0.3-1.5-0.8 0-0.4-1.2-1.3-2.7-1.9-1.6-0.7-4-2.4-5.5-3.8-1.6-1.4-3.5-2.5-4.3-2.5-0.8 0-1.5-0.5-1.5-1 0-0.6-0.6-1-1.2-1-0.7 0-2-0.9-2.8-2-0.8-1.1-2.1-2-2.7-2-0.7 0-2.6-1.4-4.3-3-1.6-1.6-3.4-3-4-3-0.5 0-3-2-5.5-4.5-2.5-2.5-4.9-4.5-5.5-4.5-0.5 0-3.2-2.3-6-5-2.7-2.8-5.4-5-6-5-0.5 0-2.9-1.8-5.2-4-2.4-2.3-5.1-4.1-6-4-1.4 0-1.8 0.9-1.8 4 0 2.3-0.5 4.2-1.2 4.5-1 0.4-1 0.6 0 1 0.8 0.3 1.2 2.9 1.2 8 0 4.3 0.4 7.5 1 7.5 0.6 0 1 1.4 1 3 0 1.6 0.5 3 1 3 0.6 0 1 0.9 1 2 0 1.1 0.5 2 1 2 0.6 0 2.2 2 3.8 4.5 1.5 2.5 3 4.5 3.5 4.5 0.4 0 0.7 0.7 0.7 1.5 0 0.8 3.8 5.3 8.5 10 4.7 4.7 9 8.5 9.5 8.5 0.6 0 3 2 5.5 4.5 2.5 2.5 5.1 4.5 5.8 4.5 0.6 0 1.9 0.9 2.7 2 0.8 1.1 2.2 2 3 2 0.8 0 2.2 0.9 3 2 0.8 1.1 2.2 2 3 2 0.8 0 2.4 0.8 3.5 1.7 1.1 1 4.1 2.9 6.8 4.3 2.6 1.4 4.7 3.1 4.7 3.7 0 0.7 0.9 1.3 2 1.3 1.1 0 2 0.4 2 1 0 0.5 0.9 1 2 1 1.1 0 2 0.4 2 1 0 0.5 0.7 1 1.5 1 0.8 0 1.5 0.4 1.5 1 0 0.5 0.9 1 2 1 1.1 0 2 0.4 2 1 0 0.5 0.9 1 2 1 1.1 0 2 0.4 2 1 0 0.5 0.8 1 1.8 1 0.9 0 2.4 0.9 3.2 2 0.8 1.1 2.3 2 3.3 2 0.9 0 1.7 0.4 1.7 1 0 0.5 0.9 1 2 1 1.1 0 2.2 0.4 2.5 1 0.3 0.5 1.4 1 2.5 1 1.1 0 2 0.4 2 1 0 0.5 0.7 1 1.5 1 0.8 0 1.7 0.7 2 1.5 0.3 0.8 1.3 1.5 2.3 1.5 0.9 0 2.4 0.9 3.2 2 0.8 1.1 2.3 2 3.3 2 0.9 0 1.7 0.4 1.7 1 0 0.5 0.9 1 2 1 1.1 0 2 0.4 2 1 0 0.5 0.7 1 1.5 1 0.8 0 1.5 0.4 1.5 1 0 0.5 0.6 1 1.3 1 0.6-0.1 4.2 2.9 8 6.5 3.7 3.6 6.7 6.7 6.7 7 0 0.3 1.1 1.6 2.5 3 1.4 1.4 3.2 2.5 4 2.5 0.8 0 2.2 0.7 3 1.5 0.8 0.8 1.5 2.9 1.5 4.5 0 1.6-0.6 3.7-1.4 4.5-0.8 0.8-1.9 1.5-2.5 1.5-0.6 0-1.1 0.4-1.1 1 0 0.6-3.7 1-9 1-5.3 0-9-0.4-9-1 0-0.6-1.8-1-4-1-2.2 0-4-0.5-4-1 0-0.6-2-1-4.5-1-2.5 0-4.5-0.5-4.5-1 0-0.6-1.3-1-3-1-1.6 0-3-0.5-3-1 0-0.6-1.3-1-3-1-1.6 0-3-0.5-3-1 0-0.6-1.3-1-3-1-1.6 0-3.2-0.5-3.5-1-0.3-0.6-1.8-1-3.5-1-1.6 0-3-0.5-3-1 0-0.6-0.9-1-2-1-1.1 0-2-0.5-2-1 0-0.6-1.3-1-3-1-1.6 0-3-0.5-3-1 0-0.6-0.9-1-2-1-1.1 0-2.2-0.7-2.5-1.5-0.3-0.9-1.7-1.5-3.5-1.5-1.6 0-3-0.5-3-1 0-0.6-0.9-1-2-1-1.1 0-2-0.5-2-1 0-0.6-0.9-1-2-1-1.1 0-2-0.5-2-1 0-0.6-0.9-1-2-1-1.1 0-2-0.5-2-1 0-0.6-1.1-1-2.5-1-1.4 0-4.3-1-6.5-2.3-2.2-1.2-4-2.5-4-3 0-0.4-1-0.7-2.2-0.7-1.3 0-3.3-0.9-4.5-2-1.3-1.1-3-2-3.8-2-0.8 0-1.5-0.5-1.5-1 0-0.6-0.9-1-2-1-1.1 0-2.2-0.7-2.5-1.5-0.3-0.8-1.4-1.5-2.5-1.5-1.1 0-2-0.5-2-1 0-0.6-0.6-1-1.2-1-0.7 0.1-2.8-1.3-4.5-3-1.8-1.6-3.9-3-4.5-3-0.7 0-2-0.9-2.8-2-0.8-1.1-2.2-2-3-2-0.8 0.1-4.1-2.3-7.3-5.2-3.2-2.9-7.5-6.9-9.7-8.8-2.1-1.9-3.9-4.1-4-4.8 0-0.6-1.1-2.3-2.5-3.7-1.4-1.4-2.8-2.5-3.2-2.5-0.5 0-1.5-1.2-2.3-2.7-0.8-1.6-2.3-3.7-3.3-4.8-0.9-1.1-1.7-2.7-1.7-3.5 0-0.8-0.9-2.2-2-3-1.1-0.8-2-2.3-2-3.3 0-0.9-0.4-1.7-1-1.7-0.5 0-1-0.9-1-2 0-1.1-0.4-2-1-2-0.5 0-1-0.9-1-2 0-1.1-0.4-2.2-1-2.5-0.5-0.3-1-1.9-1-3.5 0-1.6-0.4-3-1-3-0.5 0-1-1.8-1-4 0-2.2-0.4-4-1-4-0.6 0-1-5.8-1-15.5 0-11.6-0.3-15.6-1.2-15.8-1-0.3-1.3-5.5-1.3-21.7 0-16.2 0.3-21.4 1.3-21.7 0.9-0.2 1.2-4 1.2-14.8 0-9 0.4-14.5 1-14.5 0.6 0 1-3.3 1-8 0-4.4 0.5-8.2 1-8.5 0.6-0.3 1-3.2 1-6.5 0-3.3 0.4-6 1-6 0.6 0 1-2 1-4.5 0-2.5 0.5-4.5 1-4.5 0.6 0 1-1.8 1-4 0-2.2 0.5-4 1-4 0.6 0 1-1.4 1-3 0-1.7 0.5-3 1-3 0.6 0 1-1.4 1-3 0-1.7 0.5-3.2 1-3.5 0.6-0.3 1-1.4 1-2.5 0-1.1 0.5-2 1-2 0.6 0 1-0.9 1-2 0-1.1 0.5-2 1-2 0.6 0 1-0.7 1-1.5 0-0.8 0.6-2.2 1.3-3 0.6-0.9 2.2-2.7 3.5-4 1.2-1.4 2.2-3.2 2.2-4 0-0.8 0.5-1.5 1-1.5 0.6 0 1-0.6 1-1.3 0-0.6 0.9-1.9 2-2.7 1.1-0.8 2-2 2-2.5-0.1-0.6 2.3-3.6 5.2-6.7 2.9-3.1 6.6-7.4 8.3-9.4 1.7-2 4.8-5.4 7-7.6 2.2-2.1 4.3-3.9 4.8-3.8 0.4 0 3-2.3 5.7-5 2.8-2.8 5.8-5 6.8-5 0.9-0.1 3-1.7 4.7-3.6 1.7-1.9 3.5-3.5 4-3.4 0.6 0 1.7-0.9 2.5-2 0.8-1.1 2.2-2 3-2 0.8 0 2.2-0.9 3-2 0.8-1.1 2.3-2 3.3-2 0.9 0 1.7-0.5 1.7-1 0-0.6 0.7-1 1.5-1 0.8 0 1.5-0.5 1.5-1 0-0.6 0.9-1 2-1 1.1 0 2-0.5 2-1 0-0.6 0.8-1 1.8-1 0.9 0 2.4-0.9 3.2-2 0.8-1.1 2.3-2 3.3-2 0.9 0 1.7-0.5 1.7-1 0-0.6 0.9-1 2-1 1.1 0 2-0.5 2-1 0-0.6 1.6-1.7 3.5-2.5 1.9-0.8 3.5-2 3.5-2.5 0-0.6 0.9-1 2-1 1.1 0 2-0.5 2-1 0-0.6 0.9-1 2-1 1.1 0 2-0.5 2-1 0-0.6 0.9-1 2-1 1.1 0 2-0.5 2-1 0-0.6 0.9-1 2-1 1.1 0 2-0.5 2-1 0-0.6 0.9-1 2-1 1.1 0 2-0.5 2-1 0-0.6 1.1-1 2.5-1 1.4 0 2.5-0.5 2.5-1 0-0.6 0.9-1 2-1 1.1 0 2-0.5 2-1 0-0.6 0.9-1 2-1 1.1 0 2-0.5 2-1 0-0.6 1.3-1 3-1 1.7 0 3-0.5 3-1 0-0.6 1.5-1.7 3.3-2.5 1.7-0.9 3.8-1.5 4.5-1.5 0.6 0 1.2-0.5 1.2-1 0-0.6 1.3-1 3-1 1.7 0 3-0.5 3-1 0-0.6 0.9-1 2-1 1.1 0 2-0.5 2-1 0-0.6 1.3-1 3-1 1.7 0 3-0.5 3-1 0-0.6 1.3-1 2.9-1 1.6 0 3.2-0.5 3.5-1 0.3-0.6 1.9-1 3.6-1 1.7 0 3-0.5 3-1 0-0.6 0.9-1 2-1 1.1 0 2-0.5 2-1 0-0.6 1.3-1 3-1 1.7 0 3-0.5 3-1 0-0.6 1.3-1 3-1 1.7 0 3-0.5 3-1 0-0.6 1.6-1 3.5-1 1.9 0 3.5-0.5 3.5-1 0-0.6 1.3-1 2.9-1 1.6 0 3.6-0.7 4.5-1.5 0.8-0.8 2.1-1.5 3-1.5 0.8 0 1.8-0.5 2.1-1 0.3-0.6 2.3-1 4.5-1 2.2 0 4-0.5 4-1 0-0.6 1.8-1 4-1 2.2 0 4-0.5 4-1 0-0.6 1.4-1 3-1 1.6 0 3.1-0.5 3.2-1.1 0.1-0.9 2.9-1 10.2-0.5zm-40.1 135.6c2.6 0 4.7 0.4 4.7 1 0 0.6 0.7 1 1.5 1 0.8 0 2.2 0.7 3 1.5 0.8 0.8 1.5 2.1 1.5 2.7 0 0.7 1.2 2.2 2.7 3.3 1.4 1.1 3.1 2.5 3.7 3.1 0.6 0.7 1.9 2.1 2.9 3.3 0.9 1.1 1.7 2.5 1.7 3.1 0 0.6 2.7 3.7 6 7 3.3 3.3 6 6.4 6 7 0 0.6 3.1 4.1 7 8 3.9 3.8 7 7.4 7 8 0 0.6 2 3.1 4.5 5.7 2.5 2.7 4.5 5.2 4.5 5.8 0 0.6 0.9 1.7 2 2.5 1.1 0.8 2 1.9 2 2.5 0 0.6 1 1.6 2.2 2.2 1.3 0.7 3 2.5 3.8 4 0.8 1.5 4.2 5.4 7.4 8.6 3.3 3.2 5.8 6.5 5.8 7.3-0.1 0.8 0.2 1.4 0.8 1.4 0.6 0 1 0.6 1 1.2 0 0.7 1.6 2.7 3.5 4.3 1.9 1.6 3.5 3.3 3.5 3.7 0 0.5 2.7 3.5 6 6.8 3.3 3.3 6 6.7 6 7.5 0 0.8 2.4 3.8 5.3 6.5 2.8 2.8 6.7 6.5 8.5 8.3 1.8 1.8 3.2 3.5 3.2 3.9 0 0.5 1.4 2.2 3 3.8 1.6 1.6 3 3.2 3 3.5 0 0.3 1.7 2.2 3.8 4.2 2 2.1 4.4 5 5.2 6.6 0.8 1.5 1.8 2.7 2.3 2.7 0.4 0 2.4 1.8 4.5 3.9 2 2.1 4.5 4.8 5.5 6 0.9 1.2 1.7 2.5 1.7 3.1 0 0.6 2.3 3.2 5 6 2.8 2.7 5 5.7 5 6.5 0 0.8 0.6 1.5 1.3 1.5 0.6 0 2.1 1.2 3.2 2.7 1.1 1.5 3 3.7 4.3 5 1.2 1.3 2.2 2.7 2.2 3.3 0 0.6 2.3 3.2 5 6 2.8 2.7 5 5.4 5 6 0 0.6 2.5 3.5 5.5 6.5 3 3 5.5 5.9 5.5 6.5 0 0.6 2.3 3.2 5 6 2.8 2.7 5 5.4 5 6 0 0.6 1.4 2.4 3 4 1.6 1.6 3 3.2 3 3.5 0 0.3 1.1 1.4 2.5 2.5 1.4 1.1 2.5 2.4 2.5 3 0 0.6 2.7 3.7 6 7 3.3 3.3 6 6.7 6 7.5 0 0.8 0.4 1.5 1 1.5 0.6 0 1 0.4 1 1 0 0.6 1.6 2.6 3.5 4.5 1.9 1.9 3.7 3.5 4 3.5 0.3 0 3.4 3 7 6.7 3.6 3.8 6.5 7.4 6.5 8 0 0.7 0.3 1.3 0.8 1.3 0.4 0 4.6-3.8 9.5-8.5 4.8-4.7 8.7-8.9 8.7-9.5 0-0.6 1-2.1 2.3-3.4 1.2-1.3 4-4.5 6.2-7.1 2.2-2.5 6.4-7.1 9.3-10.1 2.8-3 5.2-6.1 5.2-6.9 0-0.8 0.5-1.5 1-1.5 0.5 0 1-0.4 1-1 0-0.6 1.4-2.4 3-4 1.6-1.6 3-3.4 3-4 0-0.6 1.6-2.6 3.5-4.5 1.9-1.9 3.9-3.5 4.5-3.5 0.5 0 1-0.8 1-1.8 0-0.9 0.9-2.4 2-3.2 1.1-0.8 2-1.8 2-2.3 0-0.4 1.4-2.1 3-3.7 1.6-1.6 3-3.4 3-4 0-0.6 1.8-2.8 4-5 2.2-2.2 4-4.4 4-5 0-0.6 1.1-1.9 2.5-3 1.4-1.1 2.5-2.3 2.5-2.8 0-0.4 0.9-1.4 2-2.2 1.1-0.8 2-2.1 2-2.8 0-0.6 2.3-3.5 5-6.2 2.8-2.8 5-5.4 5-6 0-0.6 2.5-3.5 5.5-6.5 3-3 5.5-5.9 5.5-6.5 0-0.6 2.3-3.3 5-6 2.8-2.8 5-5.4 5-6 0-0.6 1-2.1 2.3-3.4 1.2-1.3 3.6-4 5.2-6 1.6-1.9 3.4-3.6 3.8-3.6 0.5 0 1.5-0.7 2.3-1.5 0.8-0.8 1.4-1.9 1.4-2.5 0-0.6 2.7-3.7 6-7 3.3-3.3 6-6.6 6-7.3 0-0.6 2-3.3 4.5-6 2.5-2.6 5-4.7 5.5-4.7 0.5 0 1-0.7 1-1.5 0-0.8 1.4-2.9 3-4.5 1.6-1.6 2.4-3 1.8-3-0.7 0 0.7-1.9 3.2-4.3 2.5-2.4 5.6-5.7 7-7.3 1.4-1.6 3.2-4.2 4-5.7 0.8-1.5 1.9-2.7 2.3-2.7 0.5 0 1.5-0.7 2.3-1.5 0.8-0.8 1.4-1.9 1.4-2.5 0-0.6 0.8-2 1.8-3.1 0.9-1.2 2.7-3.2 4-4.5 1.2-1.3 2.2-2.8 2.2-3.4 0-0.6 1.4-2.4 3-4 1.6-1.6 3-3.3 3-3.8-0.1-0.4 2-2.8 4.5-5.5 2.5-2.6 4.5-5.1 4.5-5.7 0-0.6 1.8-2.8 4-5 2.2-2.2 4-4.4 4-5 0-0.6 1.8-2.8 4-5 2.2-2.2 4-4.6 4-5.3 0.1-0.6 4.2-5.2 9.3-10 6.5-6.4 9.4-8.6 10.2-7.8 0.5 0.6 4 1.1 14.5 1.1l0.3 45.7c0.1 25.2-0.1 107.2-0.6 182.3-0.4 75.1-0.7 168.2-0.7 207 0 38.8 0.2 110.8 0.5 160 0.3 59.4 0.1 89.8-0.5 90.5-0.6 0.6-1 6.3-1 13.2 0 9.6-0.3 12.6-1.5 13.8-0.8 0.8-1.5 1.7-1.5 2 0 0.3-0.6 1.2-1.4 2-0.8 0.8-2.2 1.5-3 1.5-0.9 0-1.6 0.5-1.6 1 0 0.5-1.4 1-3 1-1.6 0-3 0.5-3 1 0 0.5-1.4 1-3 1-1.6 0-3 0.5-3 1 0 0.5-2 1-4.5 1-2.5 0-4.5 0.5-4.5 1 0 0.5-1.8 1-4 1-2.2 0-4 0.5-4 1 0 0.6-3.7 1-9 1-8.3 0-9.2-0.2-11.5-2.5-2.4-2.4-2.5-2.9-2.5-16.5 0-8.7 0.4-14 1-14 0.7 0 1-16.3 1-47 0-29.3-0.4-47.8-1-49-0.7-1.4-0.6-2.5 0.3-3.5 1-1.3 1-1.6 0-1.5-0.7 0-1.3-1.1-1.3-2.5 0-1.4 0.6-2.5 1.3-2.6 1 0 1-0.1 0-0.5-1-0.3-1.3-43.9-1.3-213.4 0-141.3-0.3-213-1-213-0.5 0-1-1.8-1-4 0-2.2-0.3-4-0.6-4-0.3 0-1.2 0.7-2 1.5-0.8 0.8-1.4 2.1-1.4 2.7-0.1 0.7-1.6 2.8-3.5 4.5-1.9 1.8-3.5 3.7-3.5 4.3 0 0.5-1.8 2.8-4 5-2.2 2.2-4 4.4-4 5 0 0.5-1.4 2.4-3 4-1.6 1.6-3 3.4-3 4 0 0.5-0.5 1-1 1-0.5 0-1 0.6-1 1.2 0 0.7-1.9 3.5-4.2 6.2-2.4 2.7-6.2 6.8-8.5 9.2-2.4 2.4-4.3 5-4.3 5.6 0.1 0.7-1.7 3.2-4 5.5-2.2 2.4-4 4.9-4 5.5-0.1 0.7-1.8 2.8-3.8 4.6-2 1.8-4 3.2-4.4 3.2-0.5 0-0.8 0.7-0.8 1.5 0 0.8-0.8 2.5-1.7 3.6-1 1.2-2.8 3.2-4 4.5-1.3 1.3-2.3 2.8-2.3 3.4 0 0.5-1.8 2.8-4 5-2.2 2.2-4 4.3-4 4.7 0 0.5-1 2-2.3 3.5-1.2 1.5-2.8 2.7-3.4 2.8-0.7 0-1.3 0.7-1.3 1.5 0 0.8-0.5 1.5-1 1.5-0.5 0-1 0.7-1 1.5 0 0.8-1.8 3.3-4 5.5-2.2 2.2-4 4.4-4 5 0 0.5-2.2 3.2-5 6-2.7 2.7-5 5.6-5 6.2 0 0.7-1.6 2.7-3.5 4.3-1.9 1.6-3.5 3.6-3.5 4.2 0 0.7-1.7 3-3.7 5-2.1 2.1-4.5 5-5.3 6.6-0.8 1.5-1.8 2.7-2.2 2.7-0.5 0-0.8 0.5-0.8 1 0 0.5-1.5 2.6-3.2 4.5-1.8 1.9-5.7 6-8.5 9-2.9 3-5.3 6.1-5.3 6.7 0.1 0.7-1.7 3.2-4 5.5-2.2 2.4-4 4.9-4 5.5-0.1 0.7-1.8 2.8-3.8 4.6-2 1.8-4 3.2-4.4 3.2-0.5 0-0.8 0.8-0.8 1.7 0 1-0.9 2.5-2 3.3-1.1 0.8-2 2.1-2 2.7 0 0.7-0.5 1.3-1 1.3-0.5 0-1 0.7-1 1.5 0 0.8-3.3 4.8-7.2 8.9-4 4.1-8.7 9-10.3 11-2.5 3-3.7 3.6-6.7 3.6-2.1 0-4.5-0.7-5.3-1.5-0.8-0.8-1.5-2-1.5-2.5 0-0.5-0.7-1-1.5-1-0.8 0-2.2-0.7-3-1.5-0.8-0.8-1.5-2-1.5-2.5 0-0.5-0.7-1.7-1.5-2.5-0.8-0.8-1.8-1.5-2.2-1.5-0.5-0.1-2.3-1.8-4.1-3.8-1.8-2-3.2-4.2-3.2-4.7 0-0.5-0.9-1.7-2-2.5-1.1-0.8-2-2-2-2.5 0-0.5-0.9-1.7-2-2.5-1.1-0.8-2-2.1-2-2.8 0-0.6-1.9-3.2-4.2-5.7-2.4-2.5-5.8-6.1-7.5-8-1.8-1.9-3.3-3.8-3.3-4.3 0-0.4-0.9-1.4-2-2.2-1.1-0.8-2-2.1-2-2.8 0-0.6-1.8-3-4-5.2-2.2-2.2-4-4.5-4-5 0-0.5-2-2.9-4.5-5.3-2.4-2.3-4.4-4.8-4.5-5.5 0-0.6-1.8-3-4-5.2-2.2-2.2-4-4.5-4-5 0-0.6-1.8-2.9-4-5.3-2.3-2.3-4.1-4.8-4-5.5 0-0.6-0.4-1.2-1-1.2-0.6 0-1-0.7-1-1.5 0-0.8-0.6-1.5-1.2-1.5-0.7-0.1-2.3-1.3-3.5-2.8-1.3-1.5-2.3-3-2.3-3.5 0-0.4-2.2-3-5-5.7-2.7-2.8-5-5.7-5-6.5 0-0.8-0.4-1.5-1-1.5-0.6 0-1-0.5-1-1 0-0.6-1.4-2.4-3-4-1.6-1.6-3-3.7-3-4.5 0-0.8-0.6-1.5-1.2-1.5-0.7-0.1-2.8-1.8-4.6-3.8-1.8-2-3.2-4.2-3.2-4.7 0-0.6-0.9-1.7-2-2.5-1.1-0.8-2-2-2-2.5 0-0.6-0.9-1.7-2-2.5-1.1-0.8-2-2.1-2-2.8 0-0.6-1.9-3.2-4.2-5.7-2.4-2.5-5.8-6.1-7.5-8-1.8-1.9-3.3-4-3.3-4.5 0-0.6-0.4-1-1-1-0.6 0-1-0.7-1-1.5 0-0.8-2.2-3.8-5-6.5-2.7-2.8-5-5.5-5-6 0-0.6-2-3-4.5-5.5-2.5-2.5-4.5-5-4.5-5.5 0-0.6-1.8-2.8-4-5-2.2-2.2-4-4.5-4-5 0-0.6-2.2-3.3-5-6-2.7-2.8-5-5.5-5-6 0-0.6-0.4-1-1-1-0.6 0-1.2-0.9-1.5-2-0.3-1.1-0.9-2-1.5-2-0.6 0-1 2-1 4.5 0 2.5-0.4 4.5-1 4.5-0.6 0-1 9.7-1 27 0 17.3-0.4 27-1 27-0.7 0-1 78.5-1 233.5 0 155-0.3 233.5-1 233.5-0.6 0-1 2-1 4.5 0 2.5 0.4 4.5 1 4.5 0.6 0 1 5.2 1 13.5 0 8.3-0.4 13.5-1 13.5-0.6 0-1 0.9-1 2 0 1.8-0.7 2-8.5 2-5 0-8.5-0.4-8.5-1 0-0.5-1.8-1-4-1-2.2 0-4-0.5-4-1 0-0.5-1.4-1-3-1-1.6 0-3-0.5-3-1 0-0.5-1.8-1-4-1-2.2 0-4-0.5-4-1 0-0.5-1.1-1-2.5-1-1.4 0-2.5-0.5-2.5-1 0-0.5-0.9-1-2-1-1.1 0-2-0.5-2-1 0-0.5-0.6-1-1.2-1-0.7 0-2.1-0.9-3-2-1-1.1-1.8-2.7-1.8-3.5 0-0.8-0.4-1.5-1-1.5-0.6 0-1-3-1-7 0-4-0.4-7-1-7-0.7 0-1-107.8-1-321.5 0-213.7-0.3-321.5-1-321.5-0.6 0-1-9.2-1-25.5 0-19 0.3-25.9 1.3-27 0.7-0.9 3.1-1.4 6-1.5zm706.1 233.3c4.5-0.2 5.4 0.2 10.6 5.7v116l-2.6 4.7c-1.4 2.7-3.4 5.6-4.5 6.5-1 1-1.9 2.5-1.9 3.3 0 0.8-0.5 1.5-1 1.5-0.5 0-1 0.9-1 2 0 1.1-0.5 2-1 2-0.5 0-1 0.7-1 1.5 0 0.8-1 3.3-2.3 5.5-1.2 2.2-2.5 4-3 4-0.4 0-0.7 0.6-0.7 1.2 0 0.7-0.9 2.3-2 3.5-1.1 1.3-2 2.8-2 3.3 0 0.5-1.5 2.6-3.3 4.4-1.7 1.9-3.8 4.2-4.5 5-0.6 0.9-1.2 1.8-1.2 2.1 0 0.3-3.8 4.3-8.5 9-4.7 4.7-9.2 8.5-10 8.5-0.8 0-1.5 0.5-1.5 1 0 0.5-0.7 1-1.5 1-0.8 0-1.5 0.6-1.5 1.2 0 0.7-1.2 2-2.7 2.8-1.6 0.8-3.5 2.3-4.3 3.2-0.8 0.9-2.3 1.7-3.3 1.8-0.9 0-1.7 0.5-1.7 1 0 0.5-0.9 1-2 1-1.1 0-2 0.5-2 1 0 0.5-0.9 1-2 1-1.1 0-2 0.5-2 1 0 0.5-0.7 1-1.5 1-0.8 0-1.5 0.5-1.5 1 0 0.5-0.9 1-2 1-1.1 0-2 0.5-2 1 0 0.5-0.9 1-2 1-1.1 0-2 0.5-2 1 0 0.5-0.9 1-2 1-1.1 0-2 0.5-2 1 0 0.5-0.9 1-2 1-1.1 0-2 0.5-2 1 0 0.5-0.9 1-2 1-1.1 0-2.2 0.7-2.5 1.5-0.3 0.8-1.4 1.5-2.5 1.5-1.1 0-2 0.5-2 1 0 0.5-0.9 1-2 1-1.1 0-2 0.5-2 1 0 0.5-0.9 1-2 1-1.1 0-2 0.5-2 1 0 0.5-0.9 1-2 1-1.1 0-2 0.5-2 1 0 0.5-1.4 1-3 1-1.6 0-3 0.5-3 1 0 0.5-0.9 1-2 1-1.1 0-2.2 0.5-2.5 1-0.3 0.5-1.9 1-3.5 1-1.6 0-3 0.5-3 1 0 0.5-0.9 1-2 1-1.1 0-2 0.5-2 1 0 0.5-1.4 1-3 1-1.6 0-3 0.5-3 1 0 0.5-1.1 1-2.5 1-1.4 0-2.5 0.5-2.5 1 0 0.5-1.4 1-3 1-1.8 0-3.2 0.6-3.5 1.5-0.3 0.8-1.6 1.5-3 1.5-1.4 0-2.5 0.5-2.5 1 0 0.5-0.9 1-2 1-1.1 0-2.2 0.5-2.5 1-0.3 0.5-2.1 1-4 1-1.9 0-3.5 0.5-3.5 1 0 0.5-1.6 1-3.5 1-1.9 0-3.5 0.5-3.5 1 0 0.5-1.5 1-3.3 1-1.7 0-5.8-0.6-14.7-2.5v-12.3c0-7.5-0.4-12.2-1-12.2-0.6 0-1-4.7-1-12 0-11.4 0.1-12.1 2.5-14.5 1.3-1.4 3.6-2.5 5-2.5 1.4 0 2.7-0.6 2.9-1.3 0.1-0.6 1.8-1.6 3.7-2 1.9-0.5 5.1-1 7.1-1.3 2.1-0.2 3.8-0.9 3.8-1.4 0-0.5 1.4-1 3-1 1.6 0 3-0.5 3-1 0-0.5 1.4-1 3-1 1.6 0 3-0.5 3-1 0-0.5 1.4-1 3-1 1.6 0 3-0.5 3-1 0-0.5 1.6-1 3.5-1 1.9 0 3.5-0.5 3.5-1 0-0.5 1.4-1 3-1 1.6 0 3-0.5 3-1 0-0.5 0.9-1 2-1 1.1 0 2-0.5 2-1 0-0.5 1.4-1 3-1 1.6 0 3-0.5 3-1 0-0.5 0.9-1 2-1 1.1 0 2.2-0.5 2.5-1 0.3-0.5 1.4-1 2.5-1 1.1 0 2-0.5 2-1 0-0.5 1.4-1 3-1q3 0 3-1.5c0-0.8 0.9-1.5 2-1.5 1.1 0 2-0.5 2-1 0-0.5 0.9-1 2-1 1.1 0 2-0.5 2-1 0-0.5 0.7-1 1.5-1 0.8 0 1.5-0.5 1.5-1 0-0.5 0.9-1 2-1 1.1 0 2-0.5 2-1 0-0.5 0.9-1 2-1 1.1 0 2-0.5 2-1 0-0.5 0.8-1 1.7-1 1 0 2.5-0.9 3.3-2 0.8-1.1 2.1-2 2.7-2 0.7 0 2.7-1.4 4.3-3 1.6-1.7 3.5-3 4-3 0.5 0 2-1.1 3.2-2.5 1.3-1.3 2.9-2.4 3.5-2.5 0.7 0 5.3-4 10.3-9 5-5 9.5-9 10-9 0.5 0 1-1 1-2.3 0-1.2 0.9-2.9 2-3.7 1.1-0.8 2-2.3 2-3.3 0-0.9 0.5-1.7 1-1.7 0.5 0 1-0.9 1-2 0-1.1 0.5-2 1-2 0.5 0 1-0.9 1-2 0-1.1 0.5-2 1-2 0.5 0 1-2.3 1-5 0-2.8 0.5-5.2 1-5.5 0.5-0.3 1-2.3 1-4.5 0-2.2-0.5-4-1-4-0.5 0-1-1.4-1-3 0-1.7-0.2-3-0.5-3-0.3 0-1.6 1-2.9 2.2-1.3 1.3-3.3 3.1-4.5 4-1.1 1-2.6 1.8-3.1 1.8-0.5 0-2.4 1.3-4 3-1.6 1.6-3.5 3-4 3-0.5 0-2.5 1.5-4.4 3.2-1.8 1.8-4 3.8-4.7 4.4-0.8 0.5-2.9 1.7-4.7 2.5-1.7 0.8-3.2 1.7-3.2 2.1 0 0.5-0.9 0.8-2 0.8-1.1 0-2 0.5-2 1 0 0.5-0.9 1-2 1-1.1 0-2 0.5-2 1 0 0.5-0.9 1-2 1-1.1 0-2 0.5-2 1 0 0.5-0.9 1-2 1-1.1 0-2 0.5-2 1 0 0.5-0.9 1-2 1-1.1 0-2.2 0.5-2.5 1-0.3 0.5-1.9 1-3.5 1-1.6 0-3 0.5-3 1 0 0.5-0.9 1-2 1-1.1 0-2 0.5-2 1 0 0.5-0.9 1-2 1-1.1 0-2.2 0.7-2.5 1.5-0.3 0.8-1.6 1.5-3 1.5-1.4 0-2.5 0.5-2.5 1 0 0.5-0.9 1-2 1-1.1 0-2.2 0.5-2.5 1-0.3 0.5-1.9 1-3.5 1-1.6 0-3 0.5-3 1 0 0.5-0.9 1-2 1-1.1 0-2 0.5-2 1 0 0.5-1.4 1-3 1-1.6 0-3 0.5-3 1 0 0.5-1.4 1-3 1-1.6 0-3 0.5-3 1 0 0.5-1.6 1-3.5 1-1.9 0-3.5 0.5-3.5 1 0 0.5-1.4 1-3 1-1.6 0-3 0.5-3 1 0 0.5-1.4 1-3 1-1.6 0-3 0.5-3 1 0 0.5-1.4 1-3 1-1.6 0-3.2 0.5-3.5 1-0.3 0.5-1.7 1-3.1 1-1.4 0-3.2 0.7-4 1.5-1 0.9-3.4 1.5-6.5 1.5q-4.9 0-4.9-1.3c0-0.6-0.9-1.9-2-2.7-1.8-1.4-2-2.6-2-12.8 0-6.8-0.4-11.2-1-11.2-0.5 0-1-1.4-1-3 0-1.7 0.5-3 1-3 0.6 0 1-3 1-7 0-4 0.4-7 1-7 0.5 0 1-0.5 1-1 0-0.5 0.6-1.7 1.4-2.5 0.8-0.8 2.2-1.5 3-1.5 0.9 0 1.6-0.5 1.6-1 0-0.5 1.4-1 3-1 1.6 0 3-0.5 3-1 0-0.5 1.6-1 3.5-1 1.9 0 3.5-0.5 3.5-1 0-0.5 1.4-1 3-1 1.6 0 3-0.5 3-1 0-0.5 1.4-1 3-1 1.6 0 3-0.5 3-1 0-0.5 1.4-1 3-1 1.6 0 3-0.5 3-1 0-0.5 1.6-1 3.5-1 1.9 0 3.5-0.5 3.5-1 0-0.5 0.9-1 2-1 1.1 0 2-0.5 2-1 0-0.5 1.4-1 3-1 1.6 0 3-0.5 3-1 0-0.5 1.4-1 3-1 1.6 0 3-0.5 3-1 0-0.5 0.9-1 2-1 1.1 0 2.2-0.7 2.5-1.5 0.3-0.9 1.7-1.5 3.5-1.5 1.6 0 3-0.5 3-1 0-0.5 0.9-1 2-1 1.1 0 2-0.5 2-1 0-0.6 1.4-1 3-1 1.6 0 3-0.5 3-1 0-0.6 0.9-1 2-1 1.1 0 2-0.5 2-1 0-0.6 1.1-1 2.5-1 1.4 0 2.5-0.5 2.5-1 0-0.6 1.4-1 3-1 1.6 0 3-0.5 3-1 0-0.6 0.9-1 2-1 1.1 0 2-0.5 2-1 0-0.6 0.9-1 2-1 1.1 0 2-0.5 2-1 0-0.6 0.9-1 2-1 1.1 0 2-0.5 2-1 0-0.6 0.9-1 2-1 1.1 0 2-0.5 2-1 0-0.6 0.6-1 1.2-1 0.7 0.1 2-0.6 2.8-1.5 0.8-0.9 2.2-1.6 3-1.5 0.8 0 2.2-0.9 3-2 0.8-1.1 2.1-2 2.7-2 0.7 0 2.3-0.9 3.5-2 1.3-1.1 2.9-2 3.5-2 0.7 0 1.3-0.5 1.3-1 0-0.6 0.9-1 2-1 1.1 0 2-0.5 2-1 0-0.6 0.6-1 1.2-1 0.7 0 2-0.9 2.8-2 0.8-1.1 2.1-2 2.7-2 0.7 0 3.7-2.4 6.7-5.3 2.9-2.8 7-6.6 9.1-8.2 2.1-1.7 7.2-6.4 11.3-10.5 7.3-7.2 7.7-7.5 12.6-7.7zm-920.7 2.7c2.4 0 4.3 0.4 4.3 1 0 0.5 0.7 1 1.5 1 0.8 0 3 1.5 4.9 3.2 1.9 1.8 6.9 6.4 11.1 10.3 4.2 3.8 9.2 8.5 11.1 10.2 1.9 1.8 4.3 3.3 5.4 3.3 1.1 0 2 0.4 2 1 0 0.5 0.9 1 2 1 1.1 0 2 0.3 2 0.7 0 0.5 1.2 1.5 2.7 2.3 1.6 0.8 3.5 2.3 4.3 3.2 0.8 0.9 2.2 1.7 3 1.7 0.8 0.1 2.2 1 3 2.1 0.8 1.1 2 2 2.5 2 0.6 0 2.5 0.6 4.3 1.5 1.7 0.8 3.2 1.9 3.2 2.5 0 0.5 0.9 1 2 1 1.1 0 2 0.4 2 1 0 0.5 0.9 1 2 1 1.1 0 2 0.4 2 1 0 0.5 0.9 1 2 1 1.1 0 2 0.4 2 1 0 0.5 0.9 1 2 1 1.1 0 2 0.4 2 1 0 0.5 1.4 1 3 1 1.7 0 3.2 0.4 3.5 1 0.3 0.5 1.4 1 2.5 1 1.1 0 2 0.4 2 1 0 0.5 0.9 1 2 1 1.1 0 2 0.4 2 1 0 0.5 1.4 1 3 1 1.7 0 3 0.4 3 1 0 0.5 0.9 1 2 1 1.1 0 2 0.4 2 1 0 0.5 0.9 1 2 1 1.1 0 2.2 0.5 2.5 1 0.3 0.5 1.6 1 3 1 1.4 0 2.7 0.7 3 1.5 0.3 0.8 1.4 1.5 2.5 1.5 1.1 0 2 0.5 2 1 0 0.5 1.4 1 3 1 1.7 0 3 0.5 3 1 0 0.5 0.9 1 2 1 1.1 0 2.2 0.5 2.5 1 0.3 0.5 1.9 1 3.5 1 1.7 0 3 0.5 3 1 0 0.5 1.4 1 3 1 1.7 0 3 0.5 3 1 0 0.5 1.4 1 3 1 1.7 0 3 0.5 3 1 0 0.5 2 1 4.5 1 2.5 0 4.5 0.5 4.5 1 0 0.5 1.4 1 3 1 1.7 0 3 0.5 3 1 0 0.5 1.4 1 3 1 1.7 0 3 0.5 3 1 0 0.5 1.4 1 3 1 1.7 0 3 0.5 3 1 0 0.5 0.6 1 1.3 1 0.6 0 2.4 0.5 3.8 1.2 1.4 0.7 3.3 2.1 4.2 3 1.4 1.5 1.7 3.9 1.7 13.3 0 7-0.4 11.5-1 11.5-0.6 0-1 2.8-1 6.5 0 3.7-0.4 6.5-1 6.5-0.5 0-1 0.7-1 1.5 0 0.8-0.6 2.2-1.4 3-1.1 1.2-4 1.5-12.5 1.5-6.7 0-11.1-0.4-11.1-1 0-0.5-2-1-4.5-1-2.5 0-4.5-0.5-4.5-1 0-0.5-1.3-1-3-1-1.6 0-3-0.5-3-1 0-0.5-1.3-1-3-1-1.6 0-3-0.5-3-1 0-0.5-1.3-1-3-1-1.6 0-3-0.5-3-1 0-0.5-1.6-1-3.5-1-1.9 0-3.5-0.5-3.5-1 0-0.5-1.3-1-3-1-1.6 0-3-0.5-3-1 0-0.5-0.9-1-2-1-1.1 0-2-0.5-2-1 0-0.5-1.3-1-3-1-1.6 0-3-0.5-3-1 0-0.5-0.9-1-2-1-1.1 0-2.2-0.7-2.5-1.5-0.3-0.8-1.4-1.5-2.5-1.5-1.1 0-2-0.5-2-1 0-0.5-1.3-1-3-1-1.6 0-3-0.5-3-1 0-0.5-0.9-1-2-1-1.1 0-2-0.5-2-1 0-0.5-0.9-1-2-1-1.1 0-2-0.5-2-1 0-0.5-0.9-1-2-1-1.1 0-2-0.5-2-1 0-0.5-0.9-1-2-1-1.1 0-2.2-0.5-2.5-1-0.3-0.5-1.3-1-2.2-1-1 0-2.5-0.9-3.3-2-0.8-1.1-2.3-2-3.2-2-1 0-1.8-0.5-1.8-1 0-0.5-0.6-1-1.2-1-0.7 0-2.2-0.8-3.3-1.8-1.1-1-3-2.2-4.2-2.5-1.3-0.4-2.3-1.2-2.3-1.7 0-0.5-0.8-1-1.7-1-1 0-2.5-0.9-3.3-2-0.8-1.1-2.2-2-3-2-0.8 0-2.2-0.9-3-2-0.8-1.1-2.2-2-3-2-0.8 0-2.2-0.9-3-2-0.8-1.1-2.3-2-3.2-2-1 0-2-0.5-2.3-1-0.3-0.5-0.9-1-1.5-1-0.6 0-1 2.7-1 6 0 3.9-0.4 6.1-1.2 6.4-1 0.3-1 0.6 0 1.7 0.7 0.8 1.2 2.6 1.2 4.1 0 1.6 0.5 2.8 1 2.8 0.6 0 1 0.7 1 1.5 0 0.8 0.6 2.2 1.3 3 0.6 0.9 1.8 2.2 2.5 3 0.6 0.8 1.2 2 1.2 2.5 0 0.5 0.9 2 2 3.2 1.1 1.3 2 2.9 2 3.5 0 0.7 3.8 5.1 8.5 9.8 4.7 4.7 9 8.5 9.5 8.5 0.6 0 1 0.5 1 1 0 0.5 0.6 1 1.3 1 0.6 0 2.4 1.2 4 2.5 1.5 1.4 2.7 3 2.7 3.5 0 0.5 0.8 1 1.8 1 0.9 0 2.4 0.9 3.2 2 0.8 1.1 2.3 2 3.3 2 0.9 0 1.7 0.5 1.7 1 0 0.5 0.9 1 2 1 1.1 0 2 0.5 2 1 0 0.5 0.7 1 1.5 1 0.8 0 1.5 0.5 1.5 1 0 0.5 0.9 1 2 1 1.1 0 2 0.5 2 1 0 0.5 0.6 1 1.3 1 0.6 0 2.2 0.9 3.5 2 1.2 1.1 2.9 2 3.7 2 0.8 0 1.5 0.5 1.5 1 0 0.5 0.9 1 2 1 1.1 0 2 0.5 2 1 0 0.5 0.9 1 2 1 1.1 0 2.2 0.7 2.5 1.5 0.3 0.8 1.4 1.5 2.5 1.5 1.1 0 2 0.5 2 1 0 0.5 0.9 1 2 1 1.1 0 2 0.5 2 1 0 0.5 0.9 1 2 1 1.1 0 2 0.5 2 1 0 0.5 0.9 1 2 1 1.1 0 2 0.5 2 1 0 0.5 1.4 1 3 1 1.7 0 3.2 0.5 3.5 1 0.3 0.5 1.9 1 3.5 1 1.7 0 3 0.5 3 1 0 0.5 1.4 1 3 1 1.7 0 3 0.5 3 1 0 0.5 1.4 1 3 1 1.7 0 3 0.5 3 1 0 0.5 1.8 1 4 1 2.2 0 4 0.5 4 1 0 0.5 1.6 1 3.5 1 1.9 0 3.5 0.5 3.5 1 0 0.5 1.4 1 3 1 1.7 0 3 0.5 3 1 0 0.5 1.1 1 2.5 1 1.4 0 2.7 0.7 3 1.5 0.3 0.8 1.4 1.5 2.5 1.5 1.1 0 3.1 1.1 7 5v24c0 19.4-0.3 24.3-1.4 25.5-1 1-3.4 1.5-7.5 1.5-3.4 0-6.1-0.4-6.1-1 0-0.5-1.3-1-3-1-1.6 0-3-0.5-3-1 0-0.5-1.8-1-4-1-2.2 0-4-0.5-4-1 0-0.5-1.1-1-2.5-1-1.4 0-2.7-0.5-3-1-0.3-0.5-1.4-1-2.5-1-1.1 0-2.2-0.7-2.5-1.5-0.3-0.9-1.7-1.5-3.5-1.5-1.6 0-3-0.5-3-1 0-0.5-1.3-1-3-1-1.6 0-3-0.5-3-1 0-0.5-1.6-1-3.5-1-1.9 0-3.5-0.5-3.5-1 0-0.5-1.3-1-3-1-1.6 0-3-0.5-3-1 0-0.5-0.9-1-2-1-1.1 0-2-0.5-2-1 0-0.5-1.3-1-3-1-1.6 0-3-0.5-3-1 0-0.5-0.9-1-2-1-1.1 0-2-0.5-2-1 0-0.5-1.3-1-3-1-1.6 0-3.2-0.5-3.5-1-0.3-0.5-1.4-1-2.5-1-1.1 0-2-0.5-2-1 0-0.5-0.9-1-2-1-1.1 0-2-0.5-2-1 0-0.5-0.9-1-2-1-1.1 0-2-0.7-2-1.5 0-0.8-0.9-1.5-2-1.5-1.1 0-2-0.5-2-1 0-0.5-1.1-1-2.5-1-1.4 0-2.5-0.5-2.5-1 0-0.5-0.9-1-2-1-1.1 0-2-0.5-2-1 0-0.5-0.8-1-1.7-1-1 0-2.5-0.9-3.3-2-0.8-1.1-2.2-2-3-2-0.8 0-2.2-0.9-3-2-0.8-1.1-2.3-2-3.2-2-1 0-1.8-0.5-1.8-1 0-0.5-0.8-1-1.7-1-1 0-3.5-1.4-5.6-3.2-2.1-1.8-5.8-5.2-8.3-7.6-2.4-2.3-4.8-4.2-5.4-4.2-0.5 0-2-0.8-3.1-1.8-1.2-0.9-3.2-2.7-4.5-4-1.3-1.2-2.7-2.2-3.1-2.2-0.5 0-2.9-2.2-5.5-5-2.7-2.7-4.8-5.5-4.8-6 0-0.5-2-2.9-4.5-5.3-2.4-2.3-4.4-4.7-4.5-5.2 0-0.5-0.9-1.7-2-2.5-1.1-0.8-2-2.3-2-3.3 0-0.9-0.4-1.9-1-2.2-0.5-0.3-1-1.4-1-2.5 0-1.1-0.4-2-1-2-0.5 0-1-0.9-1-2 0-1.1-0.4-2-1-2-0.5 0-1-0.9-1-2 0-1.1-0.4-2-1-2-0.5 0-1-1.4-1-3 0-1.7-0.4-3-1-3-0.5 0-1-1.4-1-3 0-1.7-0.4-3-1-3-0.5 0-1-1.6-1-3.5 0-1.9-0.4-3.5-1-3.5-0.5 0-1-2.3-1-5 0-2.8-0.4-5-1-5-0.6 0-1-4.2-1-10.5 0-7.6-0.4-10.6-1.2-10.8-1-0.3-1.3-9.2-1.3-80.2l3-0.3c1.7-0.2 3.4-0.8 4-1.3 0.5-0.5 2.8-0.9 5.2-0.9z"/>
		<path id="Path 4" class="s2" d="m751.3 208.5c-0.7 0.8-1.1 2.2-0.8 3 0.4 1.1 2.2 1.5 7.5 1.5 5.6 0 7-0.3 7-1.5 0-0.8-0.7-2.2-1.5-3-0.9-0.9-3.3-1.5-6.2-1.5-2.9 0.1-5.3 0.6-6 1.5z"/>
		<path id="Path 5" class="s2" d="m308.2 74.3c0.3 0.6 2.9 1.5 5.9 1.8 3 0.4 6.4 0.9 7.7 1.3 1.2 0.3 2.2 0.2 2.2-0.4 0-0.5-0.7-1.7-1.5-2.5-1-1-3.6-1.5-8.1-1.5-4.9 0-6.5 0.3-6.2 1.3zm-263.9 369.2c-0.7 0.8-1.3 2.4-1.3 3.5q0 2 2 2c1.1 0 2.2-0.4 2.5-1 0.3-0.5 2.1-1 4-1 1.9 0 3.5-0.4 3.5-1 0-0.5-0.7-1.7-1.5-2.5-0.8-0.8-3-1.5-4.8-1.5-1.7 0.1-3.8 0.7-4.5 1.5z"/>
		<path id="Path 6" class="s3" d="m790.1 693.4c-0.1 0.3 0.6 1.3 1.4 2.1 0.8 0.8 2.6 1.5 4 1.5 1.4 0 2.5-0.5 2.5-1 0-0.5-0.3-1.2-0.8-1.4-0.4-0.2-2.1-0.7-3.9-1.1-1.7-0.3-3.1-0.4-3.2-0.1z"/>
	</g>
</svg>
